<svg width="35" height="35" viewBox="0 0 35 35" fill="none" xmlns="http://www.w3.org/2000/svg">
<g clip-path="url(#clip0)">
<path d="M34.7867 33.7551L24.1381 23.1065C26.3489 20.6507 27.708 17.4132 27.708 13.8549C27.708 6.21623 21.4927 0.000854492 13.854 0.000854492C6.21531 0.000854492 0 6.21623 0 13.8549C0 21.4936 6.21538 27.709 13.8541 27.709C17.4123 27.709 20.6498 26.3498 23.1057 24.1376L33.7543 34.7862C33.8972 34.9291 34.0839 35.0006 34.2705 35.0006C34.4572 35.0006 34.6438 34.9291 34.7868 34.7876C35.0711 34.5018 35.0711 34.041 34.7867 33.7551ZM13.8541 26.2507C7.01894 26.2507 1.45836 20.6901 1.45836 13.855C1.45836 7.01986 7.01887 1.45922 13.8541 1.45922C20.6892 1.45922 26.2497 7.01979 26.2497 13.8549C26.2497 20.69 20.6892 26.2507 13.8541 26.2507Z" fill="black"/>
</g>
<defs>
<clipPath id="clip0">
<rect width="35" height="35" fill="white"/>
</clipPath>
</defs>
</svg>
