<svg width="229" height="208" viewBox="0 0 229 208" fill="none" xmlns="http://www.w3.org/2000/svg">
<path d="M172.294 2.23877L171.917 2.66786C171.905 2.67543 171.906 2.67842 171.854 2.70363C171.695 2.78198 171.328 2.93019 170.649 3.11037C169.273 3.4774 168.101 3.61579 166.987 3.76295C166.317 3.8505 165.845 4.01034 165.476 4.30825C165.291 4.45758 165.144 4.65055 165.055 4.84461C164.965 5.03867 164.938 5.35416 164.938 5.35416V5.7609L167.879 9.19808C168.069 9.70593 168.257 10.1514 168.327 10.4317C168.391 10.6892 168.353 10.8439 168.282 11.053C168.164 11.1414 168.005 11.2739 167.973 11.2899C165.729 11.479 165.492 11.2958 164.517 10.8116C163.95 10.523 163.307 9.62004 163.011 8.97013C162.502 7.85674 161.59 7.15097 161.59 7.15097L161.514 7.08839L161.428 7.03923C159.642 6.02267 157.128 6.14178 154.57 6.58779C151.981 7.03229 148.747 8.11191 147.981 8.40695H147.977C147.566 8.56628 144.483 9.58847 143.068 9.95346C141.518 10.3513 140.344 10.7482 139.482 10.9725C138.398 11.2576 131.971 13.1718 129.518 13.9002C127.144 14.6023 125.706 14.8544 125.668 14.8612C123.925 15.0347 122.818 14.9652 122.203 14.8656C121.892 14.8155 121.702 14.7558 121.607 14.7226C121.512 14.6894 121.58 14.7226 121.58 14.7226L121.544 14.7003C121.534 14.6491 121.53 14.6019 121.53 14.6019L121.535 14.5528L121.553 11.9738V11.938C121.553 11.938 121.549 10.4558 120.208 9.72997C119.234 9.19793 118.081 9.05046 116.264 8.96565H116.259C114.384 8.88265 112.491 9.04634 111.418 9.27853C110.442 9.49269 108.486 10.0273 106.994 11.6922C106.257 12.5126 105.905 13.3071 105.757 13.9225C105.608 14.538 105.681 15.0802 105.681 15.0802L105.667 14.9506C105.667 14.9506 105.749 16.4377 105.864 17.5832V17.5877C105.911 18.0387 106.179 18.246 106.371 18.5576C106.225 18.63 106.313 18.5992 106.111 18.6917C105.134 19.139 103.527 19.7787 101.064 20.4974C96.3323 21.8823 93.2419 22.1423 93.2419 22.1423L92.1616 22.2362L92.2468 23.3089C92.3076 24.0948 92.5979 25.802 92.8788 27.4523C93.1597 29.1026 93.4257 30.5989 93.4257 30.5989C93.4284 30.615 93.5461 31.3352 93.6901 32.1633C93.8357 33.0006 93.988 33.8715 94.116 34.3624C94.3165 35.1407 94.7734 36.5627 94.7973 36.6375C94.7973 36.6375 95.1187 37.927 96.3885 38.5237C97.5607 39.0728 99.2521 39.1749 101.046 38.4745H101.05C102.747 37.8087 103.452 36.8709 104.085 36.1369C104.718 35.407 104.915 35.1892 104.95 35.1491C104.957 35.1424 105.931 34.2598 107.061 34.6395C108.239 35.0421 109.261 36.7503 109.271 36.7671L109.338 36.9057L109.379 36.9727C109.379 36.9727 109.925 38.137 110.015 38.9528C109.896 39.1314 109.63 39.4621 108.993 39.9495C107.77 40.8794 107.067 40.7684 106.098 40.687C105.131 40.6019 104.725 40.4668 104.045 40.6066L104.206 40.5887L102.588 40.6736L102.539 40.6782C100.639 40.9481 99.4836 41.7097 99.4546 41.7286C98.6682 42.2048 98.2006 42.9924 97.9306 43.8472C97.6575 44.712 97.5449 45.6903 97.5272 46.757C97.4918 48.8904 97.8308 51.3868 98.2847 53.8057C99.0788 58.0368 100.021 61.0534 100.302 61.9852C92.3776 63.0459 83.4019 64.7991 78.347 66.1062H78.3425C75.624 66.8109 74.107 67.5637 73.2101 68.2293C72.7617 68.5621 72.4709 68.8753 72.2822 69.1501C72.1849 69.2919 72.181 69.3551 72.1298 69.4853C71.442 70.6035 71.4458 71.772 71.7981 72.5023C72.1559 73.244 72.7663 73.6287 72.7663 73.6287L72.8832 73.7001L73.0087 73.7403C73.0087 73.7403 74.2204 74.1184 74.5103 75.5148V75.5193C74.747 76.6532 73.2194 77.9642 73.2194 77.9642L73.1925 77.9821L73.1656 78.0045C73.1656 78.0045 70.8492 79.928 67.3654 80.521C65.4818 80.8428 64.2505 81.0062 63.3447 80.9143C62.4388 80.8223 61.7796 80.5381 60.7493 79.7254C60.0765 79.1912 60.0502 78.7588 60.2204 78.1252C60.3911 77.4901 60.95 76.7638 61.3903 76.4491C62.8879 75.3754 63.6233 74.3102 63.9229 73.5483V73.5437L63.9275 73.5391C64.221 72.7712 64.0306 72.0552 64.0306 72.0552L63.9498 71.7468L62.3854 70.321L62.3137 70.2674C60.8746 69.3136 58.8636 69.0153 56.5583 68.8862C54.253 68.7572 51.6659 68.8668 49.2161 69.065C44.9353 69.4117 42.0471 69.9272 41.1433 70.0797C40.9883 69.1483 40.5474 66.7425 40.6368 64.5819C40.6898 63.2948 40.8402 62.4118 40.9685 61.8688C41.0969 61.3259 41.1702 61.1939 41.1702 61.1939L41.1971 61.1403L41.345 60.7112L41.3496 60.6977C41.3496 60.6977 42.3657 57.5933 43.7208 55.6425L43.5057 55.5084L43.7298 55.638C43.7298 55.638 44.5076 54.492 45.5855 54.3865C47.0701 54.2436 47.1425 54.6798 48.3467 54.8201C49.8714 55.0025 50.8468 54.9165 51.5202 54.7217C51.8574 54.6243 52.1148 54.4946 52.3136 54.3552C52.4935 54.2291 52.6475 54.0354 52.6811 53.9932C54.8506 52.2627 55.8135 50.0331 55.8188 50.0196C56.557 48.2086 56.5855 46.4142 56.3567 44.9823C56.2423 44.2664 56.0682 43.6422 55.8681 43.1274C55.6681 42.6126 55.4877 42.2319 55.1599 41.8714V41.8668H55.1553C54.2947 40.9314 52.8465 39.9 52.7841 39.8555H52.7796C52.7769 39.8532 52.3365 39.4926 51.7083 39.3325C51.1669 39.1946 50.3752 39.3133 49.5791 39.6141C49.7126 38.6574 49.782 37.7007 50.2515 36.5658C50.948 34.8822 52.4995 31.8664 52.533 31.8011L52.5509 31.7609L52.5555 31.752C52.5911 31.6919 54.8244 27.9236 55.8053 25.3558C56.7876 22.7881 56.7824 20.7476 56.7824 20.7476V20.3768L56.5449 20.0818C56.5449 20.0818 56.1138 19.5317 55.6484 18.9376C55.3161 18.5133 55.0973 18.2227 54.8909 17.9542C56.6423 18.3156 58.0644 17.5654 58.0644 17.5654L58.1092 17.5385L58.1585 17.4983C60.7038 15.5803 62.0986 12.3314 62.0986 12.3314L62.085 12.3671L64.5056 7.47732L62.1434 3.66021L61.6772 3.57081C61.6772 3.57081 61.5402 3.54596 61.48 3.54399C61.4197 3.5422 61.3658 3.54378 61.3052 3.54847C61.1839 3.55783 61.0464 3.58098 60.8614 3.61999C60.4913 3.69804 59.9238 3.84669 58.9743 4.16976C57.5919 4.63792 57.148 4.91283 56.6479 5.1665L55.9711 4.16082L55.7649 3.95074L55.7603 3.94627C55.7548 3.94116 55.6396 3.8374 55.5676 3.78983C55.4938 3.7411 55.4167 3.69587 55.33 3.66021C55.1567 3.58889 54.96 3.54761 54.7339 3.52612C54.2816 3.48313 53.6946 3.52595 52.7885 3.73172C50.8023 4.18165 48.534 5.43017 47.3156 7.04823C46.8095 7.72079 46.5052 8.24987 46.325 8.63943C46.2699 8.75852 46.2851 8.76068 46.2488 8.86292C42.629 11.9596 39.6951 13.2643 39.6418 13.2879C38.5907 13.4802 37.8802 13.9986 37.8802 13.9986L37.8623 14.012L37.8444 14.0209C34.5974 16.7534 30.8473 21.1903 30.8473 21.1903L31.058 21.0026C31.058 21.0026 30.8632 21.1567 30.7667 21.2752C30.6702 21.3938 30.5749 21.5431 30.4753 21.7356C30.2699 22.1326 30.2219 22.4019 30.1302 22.7726C30.0843 22.9579 30.043 23.1421 30.0136 23.3179C29.9849 23.4903 29.9167 23.5582 29.9911 23.9749C30.0019 24.0363 30.0307 23.9914 30.0449 24.0464C28.2607 26.3689 27.3415 27.367 27.2076 27.4881C27.1924 27.4899 27.0731 27.43 27.0731 27.43L26.9879 27.4389L26.9028 27.4613C26.3798 27.6128 26.0516 27.8423 25.6791 28.0603C25.3066 28.2782 24.9978 28.4759 24.9978 28.4759L24.8185 28.5921L24.6929 28.7665C23.681 30.1919 21.5372 33.7839 21.2953 34.1882C21.1812 34.2452 21.0771 34.2975 20.9905 34.3536L20.847 34.2999L18.6507 35.5246L18.5028 35.766C11.6974 46.9252 6.80063 59.3714 4.25322 72.6497L4.20392 72.8956L4.35632 73.4766L3.91256 74.4734L3.89464 74.603C2.80914 80.8516 2.24512 87.2756 2.24512 93.8271C2.24512 98.0984 2.4844 102.309 2.95334 106.463L2.95781 106.472L3.22676 108.671L3.23123 108.675C5.24136 123.819 10.2929 138.013 17.7497 150.619L18.4221 151.75V151.759C38.0935 184.129 73.7674 205.761 114.493 205.761C173.213 205.761 221.429 160.78 226.342 103.486L226.365 103.227L225.975 102.279L226.495 101.408L226.513 101.148C226.669 98.7284 226.755 96.2819 226.755 93.8181C226.755 83.7918 225.433 74.0624 222.949 64.8143L222.891 64.5998L222.223 63.755L222.429 62.9326L222.349 62.6554C218.583 49.6856 212.29 37.3703 204.419 26.8086L204.244 26.5717L202.066 25.6554L201.142 26.3125L200.51 26.7371C200.351 26.5382 200.258 26.4486 200.107 26.2544C199.322 25.2467 198.659 24.3548 198.659 24.3548L198.628 24.3101L198.592 24.2699C196.329 21.7876 194.887 19.741 194.549 19.2683L194.63 19.1387L193.962 17.096L193.917 17.02C193.278 15.7847 192.109 14.6002 191.07 13.6141C190.032 12.6281 189.121 11.8933 189.121 11.8933L189.089 11.8665L189.058 11.8397C189.058 11.8397 187.815 10.9419 186.696 10.5032C185.612 10.0789 184.544 10.0518 184.544 10.0518L184.006 10.0295L183.894 10.1635C181.126 8.20142 174.593 3.021 174.593 3.021L174.432 2.89138L172.294 2.23877ZM172.791 4.66134L173.401 4.84459C173.651 5.04604 180.888 10.8802 183.459 12.5682L184.275 13.0956L184.921 12.3224C185.209 12.3558 185.479 12.3577 185.902 12.5235C186.483 12.7508 187.745 13.5833 187.785 13.6096C187.82 13.6378 188.619 14.2852 189.569 15.1874C190.529 16.0994 191.585 17.2828 191.958 17.9855L192.24 18.8481L191.904 19.3755L192.321 19.9655C192.321 19.9655 194.337 22.8136 196.902 25.6465C196.902 25.6465 197.581 26.5626 198.386 27.5953C199.085 28.492 199.81 29.3842 200.434 30.0223C199.824 30.2717 198.961 30.5875 197.785 30.9028C195.359 31.5551 193.016 32.6416 193.016 32.6416C193.016 32.6416 191.08 33.2711 191.815 34.8451C192.551 36.4235 193.643 37.1828 193.643 37.1828C193.643 37.1828 195.191 38.6828 195.248 39.8199C195.298 40.9634 194.815 41.4859 193.585 42.162C192.362 42.8425 191.241 42.9755 191.241 42.9755C191.241 42.9755 188.32 43.4983 186.875 42.1352C185.429 40.7742 185.163 38.5192 185.163 38.5192C185.163 38.5192 185.051 36.6124 182.653 35.7971C180.254 34.9819 177.31 36.7224 177.31 36.7224C177.31 36.7224 174.992 37.9449 172.509 39.5472C170.023 41.1517 165.335 43.116 162.392 44.1465L161.836 44.5756L162.388 44.151C161.169 43.0292 154.832 35.5425 153.598 33.7903C152.364 32.0336 152.18 31.6329 151.962 31.0459C151.744 30.4589 152.333 29.138 152.863 28.5205C153.384 27.9052 153.998 27.7818 155.265 28.0601C156.532 28.3362 157.363 28.8912 159.371 28.2434C161.381 27.5999 161.478 26.0907 161.63 24.5514C161.787 23.0122 159.93 19.7495 158.448 18.1777C156.965 16.608 154.868 16.3589 153.414 16.4524C151.964 16.5458 151.136 17.5939 150.299 18.057C149.466 18.5179 147.887 18.9803 147.179 18.6738C146.47 18.3629 145.388 18.0556 144.185 15.9294C143.355 14.4709 142.726 13.2653 142.293 12.4341C142.751 12.2997 143.074 12.1975 143.615 12.0587C145.218 11.6453 148.016 10.7246 148.77 10.4317V10.4362C149.177 10.2792 152.658 9.11958 154.938 8.72875H154.942C157.214 8.33258 159.467 8.49505 160.272 8.92095C160.383 9.02913 160.848 9.47176 161.03 9.86852C161.443 10.7736 162.163 12.0639 163.535 12.7559H163.54L163.544 12.7604C164.531 13.2502 165.668 13.6579 168.161 13.4532C168.243 13.4529 168.301 13.4555 168.385 13.4398C168.526 13.4137 168.679 13.3711 168.843 13.2968C169.17 13.1483 169.544 12.8967 170.004 12.4654L170.16 12.3179L170.25 12.1302C170.608 11.3592 170.6 10.5436 170.442 9.9088C170.284 9.27397 170.037 8.77574 169.86 8.27736L169.793 8.08963L167.852 5.81456C168.837 5.68483 169.893 5.56238 171.209 5.21116C171.976 5.00763 172.457 4.82361 172.791 4.66139L172.791 4.66134ZM54.3843 5.70277L55.8993 7.95102L56.7779 7.46383C56.7779 7.46383 57.5816 7.0682 58.6784 6.628C58.0531 8.00542 57.0316 10.1054 55.5766 11.9067C55.5766 11.9067 54.7611 13.1097 54.1288 12.814C53.4987 12.5227 52.7602 12.498 52.1476 12.6263C51.5349 12.7568 49.625 13.3883 47.8983 15.7015C46.1759 18.0146 45.9766 19.752 46.9032 20.2695C47.7922 20.7659 49.0597 20.1552 49.884 19.4694L51.8069 19.1386C51.8014 19.1707 51.8038 19.2275 51.798 19.2504C51.7413 19.4547 51.4595 22.219 48.2524 27.7607C47.4479 29.1521 46.4099 31.2144 45.9216 32.208L45.9261 32.2348C45.9252 32.2335 45.9036 32.2035 45.9036 32.2035C40.6972 33.1645 36.8189 34.3697 35.4955 34.8719C34.1677 35.372 34.1418 35.0507 34.1418 35.0507C33.6818 34.5115 35.0921 32.8248 35.0921 32.8248C35.0921 32.8248 36.5198 30.882 37.0823 29.0971C37.5058 27.7601 36.1972 27.5651 35.5179 27.5506C35.2915 27.5458 35.1369 27.5595 35.1369 27.5595C33.4843 27.8226 32.295 28.6067 30.928 30.2502C29.8684 31.5242 29.2246 33.2685 28.9826 34.1925C28.8278 34.773 28.5612 35.3099 28.5612 35.3099C28.5612 35.3099 28.3623 35.6703 27.5796 36.0117C26.6726 36.4073 24.9036 36.8743 24.9036 36.8743C24.9036 36.8743 23.7256 36.972 22.8731 36.548C22.5979 36.4131 22.0933 36.4472 21.6539 36.5123L21.7435 36.4452C21.7435 36.4452 21.8529 36.3698 21.99 36.2798C22.1209 36.194 22.292 36.1052 22.2635 36.1144L22.761 35.9669L22.9806 35.6049C22.9806 35.6049 25.4219 31.5547 26.3693 30.1832C26.4755 30.1165 26.5593 30.063 26.7817 29.9329C26.9121 29.8566 26.9391 29.8481 27.0731 29.7809L27.4272 30.2815L28.3371 29.4904C28.3371 29.4904 29.5613 28.3983 32.1785 24.8866L32.1875 24.8687L32.9629 23.939L32.2144 23.4429C32.2258 23.3911 32.232 23.3502 32.2457 23.2954C32.317 23.0078 32.4753 22.6091 32.4116 22.7322C32.4407 22.6759 32.4388 22.6801 32.443 22.6741L32.5102 22.5937C32.5102 22.5937 36.2461 18.2263 39.2248 15.7103C39.2308 15.7056 39.5407 15.4586 40.1527 15.3885L40.3051 15.3751L40.4485 15.3126C40.4485 15.3126 43.8341 13.8956 47.8579 10.378L48.1493 10.1277L48.2165 9.75227C48.2165 9.75227 48.1935 9.78052 48.3017 9.54667C48.4099 9.31282 48.6299 8.91326 49.0547 8.34879C49.7026 7.48843 51.9189 6.15688 53.2727 5.85024C53.9449 5.69758 54.2306 5.69741 54.3843 5.70274L54.3843 5.70277ZM116.161 11.1379C117.884 11.2183 118.708 11.3922 119.159 11.6385H119.164C119.251 11.6857 119.37 12.0573 119.375 12.0721L119.357 14.4946L119.361 14.4052C119.361 14.4052 119.321 14.7843 119.429 15.2277C119.535 15.6674 119.872 16.3294 120.581 16.6401C120.654 16.6781 120.725 16.718 120.885 16.7742C121.112 16.8536 121.428 16.9378 121.854 17.0066C122.705 17.1443 123.995 17.2146 125.915 17.02H125.955L125.995 17.011C125.995 17.011 127.632 16.7238 130.137 15.983C132.59 15.2548 139.266 13.2796 140.034 13.0777C140.089 13.0635 140.176 13.0346 140.231 13.0196C140.515 13.6033 140.901 14.3782 141.868 16.0232C143.841 19.4017 147.268 20.7054 148.748 20.551C150.043 20.4162 152.269 19.8092 153.136 18.857C153.997 17.9026 154.866 18.0256 154.866 18.0256C156.748 17.9061 157.209 19.4732 158.757 21.6908C160.301 23.9083 159.349 25.6331 159.349 25.6331C158.324 26.9875 157.177 26.7109 156.126 26.4957C155.337 26.3305 155.256 26.2382 154.342 26.0621C151.499 25.6904 150.545 27.7874 150.545 27.7874C148.507 30.9289 150.913 33.2047 150.913 33.2047C150.913 33.2047 156.3 40.3992 160.402 44.8348C157.3 45.8976 153.275 47.244 153.275 47.244C153.275 47.244 147.8 49.2601 144.198 49.7515C140.601 50.2384 139.805 49.72 139.317 49.233C138.822 48.746 139.398 47.0339 139.398 47.0339C139.398 47.0339 140.87 44.0405 140.16 42.4882C139.451 40.936 134.812 40.5305 134.736 40.5305C134.649 40.5305 129.682 39.9574 125.032 42.5597C120.902 44.8686 120.361 46.1265 120.361 46.1265C120.361 46.1265 119.046 48.1653 120.607 50.185C122.367 52.47 124.704 52.6791 124.704 52.6791C124.704 52.6791 126.929 52.8516 127.448 53.506C127.969 54.156 127.613 54.8648 127.613 54.8648C127.613 54.8648 126.88 56.8751 122.759 57.7164C122.759 57.7164 115.826 59.7461 102.902 61.5782C100.325 52.2929 100.159 46.4439 100.159 46.4439C99.9506 44.5159 100.245 43.7841 101.194 43.2615C101.558 43.1125 102.102 42.9388 102.835 42.8324L104.404 42.7564L104.431 42.7518C104.697 42.7683 104.972 42.7801 105.269 42.801C105.512 42.8159 105.453 42.815 105.905 42.8546H105.91C106.518 42.9055 107.396 42.9034 108.366 42.6312C108.875 42.51 109.333 42.3528 109.706 42.144C110.629 41.6309 113.157 40.2529 112.983 37.4419C112.813 34.633 110.567 31.302 108.729 30.1563C108.497 30.0112 108.255 29.8947 108.008 29.7987C107.766 29.7044 107.518 29.6311 107.268 29.5797C107.265 29.5792 107.262 29.5801 107.259 29.5797C106.25 29.3742 105.204 29.5038 104.323 29.8255C103.879 29.9878 103.476 30.1935 103.144 30.4379C101.823 31.4162 101.3 32.6772 100.495 33.0794C99.8937 33.3769 99.1035 33.9666 98.236 34.1254C97.9458 34.1768 97.646 34.1797 97.344 34.1075C96.1361 33.8205 96.0767 31.1262 95.56 28.0868C95.2427 26.2189 95.0093 24.8735 94.8607 24.0284C95.7443 23.9373 97.7251 23.7418 101.678 22.5846C104.23 21.8402 105.939 21.165 107.026 20.6671C108.113 20.1693 108.64 19.8 108.64 19.8L110.325 18.5978L108.375 17.896C108.375 17.896 108.087 17.8822 108.034 17.3686C107.927 16.3096 107.841 14.8298 107.841 14.8298L107.837 14.7673L107.828 14.7002C107.828 14.7002 107.806 14.7029 107.873 14.4276C107.939 14.1522 108.111 13.709 108.621 13.1403C109.622 12.0241 111.076 11.5838 111.884 11.4061C112.6 11.2513 114.499 11.0643 116.161 11.1379L116.161 11.1379ZM25.1366 72.2787C19.2238 72.2483 22.3665 67.6526 22.3665 67.6526C22.3665 67.6526 23.7584 65.222 24.0026 63.8176C24.0026 63.8176 24.4896 60.0208 20.9053 60.2687C17.3188 60.5122 16.6156 63.6299 16.6156 63.6299C16.6156 63.6299 16.3727 65.371 16.4229 66.6559C16.4687 67.9472 16.4181 70.675 14.8047 72.2251C13.1979 73.7752 11.4698 73.2978 11.4698 73.2978C11.4698 73.2978 8.56706 72.0336 7.99148 71.7379C7.54082 71.505 7.13487 71.4813 6.7409 71.5412C9.20715 59.6167 13.6097 48.4023 19.6143 38.2376L20.1836 37.6923L19.5471 38.6354C19.8393 38.5854 20.0805 38.5147 20.0805 38.5147C20.0805 38.5147 20.9619 38.3696 22.5055 38.774C24.5048 39.3044 27.0103 37.6968 27.0103 37.6968C27.0103 37.6968 28.9129 36.5585 29.7894 34.6931L30.5738 32.5075C30.5738 32.5075 31.2106 30.3946 32.9853 29.7229C32.9853 29.7229 33.6756 29.3515 34.7962 29.3385C35.9147 29.3277 35.6524 30.1072 35.6524 30.1072C35.6524 30.1072 35.5304 30.6156 34.3749 32.0918C33.2215 33.5636 32.9091 34.6931 32.9091 34.6931C32.9091 34.6931 32.2164 36.2606 33.3305 36.7715C33.3305 36.7715 33.8549 37.0793 35.3789 36.5749C36.9051 36.0683 41.9625 34.7403 45.0519 34.2685L45.0744 34.2639L45.0699 34.2729C44.4899 35.9208 43.7512 38.4991 44.0434 39.9449C44.4882 42.1428 46.567 42.144 46.567 42.144C46.567 42.144 46.9927 42.1458 47.6203 42.0278L47.84 42.0993C47.84 42.0993 48.0507 42.1569 48.1941 42.1663C48.3374 42.1757 48.5027 42.1654 48.6961 42.135C49.0829 42.0746 49.571 41.925 50.2156 41.5987C50.3308 41.5405 50.4006 41.5392 50.4935 41.5093C51.2371 42.2085 51.4438 44.2373 51.4438 44.6604C51.4438 45.2343 51.4291 48.4138 49.2206 49.9704C49.2206 49.9704 48.3248 50.6498 47.069 50.6498C45.8066 50.6498 44.9892 50.2833 44.9892 50.2833C44.9892 50.2833 42.8455 49.6902 41.5243 50.4621C40.2074 51.2404 38.6319 52.8515 37.387 55.182C36.1465 57.5126 35.1115 61.6706 35.1682 64.7382C35.2118 67.1536 35.5403 69.4393 35.7823 70.9981C35.7823 70.9981 30.7726 72.3113 25.1367 72.2787L25.1366 72.2787ZM204.37 30.5319C211.174 40.1903 216.649 51.1884 220.067 62.7315C219.981 62.7381 219.903 62.7315 219.812 62.7493C218.977 62.9189 218.897 63.5374 217.606 63.7461C216.313 63.9548 214.82 64.4088 213.361 66.6111C211.901 68.8091 213.361 71.5501 213.361 71.5501C213.361 71.5501 214.145 72.8358 214.522 73.4989C214.897 74.1642 216.851 78.3148 214.608 81.3432C214.608 81.3432 213.405 82.7398 211.282 83.2115C209.404 83.6246 209.882 81.4378 209.69 80.266C209.69 80.266 209.41 75.3079 206.992 72.4664C204.866 69.9749 201.004 74.3983 199.081 75.8723C197.289 77.2393 192.047 82.6316 184.517 86.5727L184.239 82.9612C184.239 82.9612 184.058 81.0241 183.007 78.0044C180.872 71.8605 178.771 69.0426 178.771 69.0426C178.771 69.0426 177.481 66.1776 174.481 66.1776C171.579 66.1776 171.361 68.8236 171.361 68.8236C171.361 68.8236 170.676 70.9224 169.564 71.5725C168.48 72.2008 165.272 74.0663 163.571 72.2161C161.517 69.9855 160.394 67.3773 160.173 64.8858C159.957 62.39 160.98 61.3771 160.98 61.3771C160.98 61.3771 161.194 60.729 164.499 60.729C168.203 60.729 168.887 59.5937 168.887 59.5937C168.887 59.5937 169.594 58.9454 169.537 57.4975C169.474 56.0517 168.913 52.9436 167.834 50.9717C167.123 49.6782 165.525 47.6246 164.163 46.0506L162.056 45.6707V45.6661L162.28 46.2515L164.163 46.037C165.451 45.5587 167.228 44.8664 169.143 44.0033C173.069 42.2423 174.939 40.7699 176.736 39.7481C176.736 39.7481 180.694 37.314 183.029 37.3792C183.029 37.3792 183.575 37.3611 183.625 38.0765C183.675 38.7917 183.85 39.8457 184.096 40.4588C184.34 41.0697 185.701 44.4193 190.049 44.9106C194.396 45.4063 196.252 42.4836 196.252 42.4836C196.252 42.4836 197.738 40.202 195.172 37.4909C195.172 37.4909 193.081 35.2535 193.016 35.0818C193.016 35.0818 192.788 34.7463 193.379 34.5767C193.937 34.4153 199.578 32.8331 202.223 31.7161L202.79 31.4486C202.79 31.4486 203.195 31.2975 203.343 31.2423C203.715 31.0571 204.117 30.8006 204.37 30.5316V30.5319ZM134.57 42.4525C136.098 42.4365 137.165 42.5643 137.165 42.5643C137.165 42.5643 138.952 42.7588 138.653 43.9633C138.348 45.1699 137.339 47.1858 137.3 48.2229C137.254 49.2534 137.32 50.4522 139.344 51.2935C141.371 52.1327 144.283 51.8746 144.283 51.8746C144.283 51.8746 147.301 51.7228 152.239 50.1314C157.173 48.5422 162.253 46.7121 162.253 46.7121C164.596 45.3823 161.973 45.917 161.913 45.7467L162.253 46.7121L162.258 46.7346C166.588 50.9674 167.377 56.1209 167.377 56.1209C167.377 56.1209 167.959 58.1522 166.758 58.3066C165.712 58.4392 163.266 58.463 163.266 58.463C163.266 58.463 162.339 58.5543 160.828 58.8608C159.319 59.1673 158.359 60.7691 158.143 61.8778C157.932 62.9866 157.28 66.0319 159.846 70.8083C162.406 75.5825 165.647 75.3673 165.647 75.3673C168.459 75.1217 169.325 74.6257 170.963 73.5169C172.552 72.4364 173.278 70.04 173.37 69.5791C173.466 69.116 173.68 68.6539 174.047 68.6539C174.422 68.6539 174.295 68.6548 175.158 68.5332C176.026 68.4115 176.677 69.023 177.386 70.4731C177.848 71.4014 180.317 75.4614 181.03 77.8659C181.741 80.2639 182.363 82.6641 182.42 84.8207C182.448 85.6686 182.562 86.6393 182.698 87.5003C179.083 89.2982 170.88 93.2669 165.535 95.1322C165.535 95.1322 161.443 96.7872 159.779 96.8307C159.779 96.8307 159.411 96.8439 159.703 96.4418C159.993 96.0396 160.309 95.7439 160.81 94.8417C161.314 93.9329 162.222 91.8908 162.222 89.782C162.222 87.6753 159.78 85.6109 156.377 85.9783C152.976 86.3414 149.725 87.2853 145.807 88.7897C141.894 90.2942 138.518 93.4853 138.066 96.1289C137.611 98.7726 140.478 100.299 140.478 100.299C140.478 100.299 143.715 101.933 144.127 102.816C144.536 103.698 144.234 104.519 144.234 104.519C144.234 104.519 143.95 105.399 142.526 106.213C141.109 107.032 137.246 109.015 137.246 109.015C137.246 109.015 132.438 111.659 125.126 112.3C125.126 112.3 118.458 112.864 114.623 113.056C114.577 113.06 114.529 113.062 114.48 113.065C114.563 110.621 114.456 108.444 114.202 106.525V106.521C114.033 105.243 113.795 104.079 113.507 103.026V103.021C113.363 102.495 113.205 101.999 113.037 101.528V101.524C112.868 101.052 112.685 100.609 112.494 100.192V100.187C112.303 99.7686 112.104 99.3767 111.894 99.0115C110.139 95.9373 107.273 94.3125 105.86 93.6255C105.508 93.4532 105.037 93.3055 104.498 93.1919C103.958 93.0783 103.35 92.9998 102.714 92.9684C101.932 92.9298 101.131 92.9949 100.356 93.1204C99.8698 93.1991 99.3829 93.2806 98.953 93.4378L98.9484 93.4423C98.3944 93.6453 97.9456 93.8351 97.5768 94.0323L97.5722 94.0369C97.2049 94.2338 96.9147 94.4342 96.6668 94.6537C96.5164 94.7867 96.4021 94.9468 96.2768 95.0962C96.1939 95.195 96.0941 95.2784 96.0168 95.3867C96.015 95.3894 96.0141 95.3929 96.0122 95.3956C95.82 95.666 95.6371 95.9674 95.434 96.3164C95.4322 96.3195 95.4313 96.3221 95.4294 96.3253C95.0211 97.0249 94.5655 97.3531 94.2147 97.5053C93.8622 97.6583 93.6141 97.6349 93.6141 97.6349C93.6141 97.6349 90.5042 97.7306 89.4947 92.9999C88.7927 89.6855 88.9886 87.4904 89.3603 86.1255C89.4526 85.7864 89.5532 85.4997 89.6561 85.2584L89.6607 85.2538C89.7633 85.0138 89.8655 84.82 89.9565 84.6683L89.9611 84.6637C90.1422 84.3625 90.2718 84.2332 90.2749 84.2302L90.2795 84.2256C90.2795 84.2256 90.3694 84.1216 90.517 83.9842C90.7711 83.7482 91.2964 83.41 92.171 83.1439C92.4971 83.0447 92.8251 82.9437 93.2603 82.8847C95.556 82.5716 97.0321 83.1337 98.7915 83.5685C100.418 83.975 101.693 83.809 103.615 82.9428C103.769 82.8731 103.899 82.8344 104.063 82.7551C104.612 82.4882 105.084 82.1798 105.475 81.8164C105.67 81.6355 105.849 81.4399 106.004 81.2309L106.008 81.2263C106.318 80.8077 106.54 80.3294 106.685 79.7826C106.905 78.9577 106.94 77.9781 106.775 76.8014C106.347 73.7642 106.231 73.0506 103.538 63.8348C109.435 63.0247 113.453 62.3257 120.59 60.6747C120.59 60.6747 127.217 59.5031 128.6 57.0856C129.402 55.6724 130.856 53.7393 128.505 51.7935C128.505 51.7935 128.227 51.4468 126.775 51.1185C125.323 50.7903 124.211 50.569 122.988 49.6972C121.762 48.821 121.786 47.8065 121.786 47.8065C121.786 47.8065 121.683 46.8389 123.669 45.7236C123.669 45.7236 125.525 44.3703 129.209 43.2072C131.054 42.6278 133.042 42.4679 134.57 42.4518L134.57 42.4525ZM36.41 82.2328C36.3708 84.2133 36.0757 88.4061 33.9805 89.3887C33.9805 89.3887 33.2705 89.7594 32.0845 88.8703C30.8984 87.9811 29.6181 87.9457 29.0992 87.9272C28.941 87.9214 28.6173 87.9542 28.2207 88.0702C27.3165 88.3347 26.0289 89.0387 25.4102 90.7743C24.5226 93.2643 24.5929 96.6201 24.7782 98.5963C24.9657 100.575 26.7663 103.714 28.9378 103.714C28.9378 103.714 29.9162 104.018 31.1611 102.74C32.3995 101.466 33.1264 101.355 33.6802 101.372C34.2362 101.391 35.3113 101.96 36.0155 107.562C36.6849 112.876 37.1997 117.379 37.1496 122.214C37.6733 122.849 38.0454 123.613 38.51 124.364C40.2803 124.168 43.1267 123.858 46.4057 123.506C51.9174 122.917 55.6209 122.322 59.0461 122.836C62.4756 123.346 63.5778 126.018 63.5778 126.018C63.5778 126.018 63.8135 126.698 63.0265 127.198C62.2656 127.685 61.3939 128.39 60.9601 129.133C60.5262 129.886 60.0648 131.456 61.3097 133.558C62.5568 135.652 65.9766 137.017 68.8894 136.669C71.8001 136.328 76.1626 135.211 78.7462 134.542C81.5522 133.809 84.031 132.431 84.3537 130.237C84.6742 128.044 81.0098 125.249 81.0098 125.249C81.0098 125.249 79.2378 123.92 79.0241 123.618C78.8061 123.316 79.2393 123.184 79.2393 123.184C79.2393 123.184 81.3081 122.688 82.1977 122.286C83.0785 121.873 85.5164 120.883 89.5085 119.64C93.5005 118.392 101.736 116.927 101.736 116.927C101.736 116.927 106.281 116.203 111.952 115.747L113.216 115.445L111.97 115.742C111.954 116.277 111.933 116.822 111.911 117.391C111.6 125.818 113.485 130.143 113.485 130.143C114.555 132.463 115.712 134.12 117.286 135.185C118.853 136.248 120.996 135.524 121.688 135.185C122.377 134.837 124.29 133.963 125.923 132.928C127.556 131.893 127.498 131.456 129.474 129.638C131.451 127.827 134.001 128.324 134.001 128.324C134.001 128.324 136.42 128.387 137.802 131.176C139.186 133.965 138.904 137.941 138.55 139.382C138.206 140.824 137.578 141.767 136.228 141.514C134.877 141.264 132.647 141.04 131.831 141.009C131.014 140.979 128.713 140.902 126.618 141.447C124.573 141.98 121.807 143.453 119.173 147.718C117.126 151.021 118.133 154.266 118.604 155.549C118.972 156.554 119.987 157.948 120.876 159.67L122.526 160.22L122.348 159.58L120.876 159.679C118.079 160.016 113.348 160.687 108.68 161.811C102.963 163.198 97.5086 164.31 93.6278 166.804C93.6278 166.804 90.7229 168.727 92.3951 170.599C94.063 172.473 95.8062 173.276 95.8062 173.276C95.8062 173.276 96.8367 173.726 96.8193 174.005C96.7998 174.365 96.7844 174.676 96.0169 175.118C96.0169 175.118 92.9782 176.893 87.0611 176.99C81.1439 177.086 78.5363 177.032 76.8009 175.475C75.3663 174.19 77.1595 171.466 77.1595 171.466C77.1595 171.466 77.8789 170.134 77.1595 168.306C76.44 166.484 72.323 166.451 72.323 166.451L66.6213 166.16C59.8735 165.984 50.9633 165.235 46.9974 164.743C46.9974 164.743 46.9715 164.737 46.9257 164.73V164.725C46.8865 164.671 46.8507 164.612 46.8136 164.56C46.8136 164.56 42.7288 157.217 43.1605 154.521C43.1605 154.521 43.3059 152.716 45.8634 151.938C47.6446 151.392 47.4128 153.119 52.6497 154.061C52.6497 154.061 57.1628 155.27 58.3424 152C59.5175 148.728 57.1052 144.625 57.1052 144.625C57.1052 144.625 53.9455 138.851 50.032 138.631C47.9608 138.516 48.526 139.904 45.4017 140.643C45.4017 140.643 41.232 141.042 39.9107 138.551C38.3105 135.533 37.6419 132.097 37.6964 129.804C37.7444 127.63 37.8147 127.457 37.9564 126.822C38.0545 126.375 38.3748 125.551 38.51 124.364C38.51 124.364 40.1616 122.058 36.8941 122.062C36.1877 122.147 35.3434 122.227 34.4691 122.295C32.2627 122.449 29.0665 122.17 25.0919 120.998C21.1152 119.82 18.6341 117.661 18.2787 116.363C18.0301 115.465 18.3549 114.196 18.3549 114.196C18.3549 114.196 19.0971 111.334 18.6283 108.975C18.1487 106.62 17.3609 104.773 15.0738 103.397C12.7889 102.023 11.4923 102.261 11.4923 102.261C11.4923 102.261 9.44378 101.947 9.52009 105.404C9.60076 108.863 10.0356 110.311 10.0356 110.311C10.0356 110.311 10.4281 111.529 9.798 111.688C9.17009 111.845 8.18434 110.906 8.18434 110.906C8.18434 110.906 6.6211 109.474 5.3425 108.027L5.11827 106.222V106.213C4.65905 102.142 4.4235 98.0143 4.4235 93.8271C4.4235 87.4342 4.97974 81.1715 6.03268 75.0767L6.62884 73.7448C7.07444 73.8409 7.48049 73.9951 7.48049 73.9951C7.48049 73.9951 9.95655 75.3267 11.0619 75.555C12.1673 75.7833 12.9691 75.4138 13.6886 74.9203C14.8376 74.1268 16.1808 72.4809 16.7411 70.9199C17.2404 69.5155 17.3507 65.7172 17.3507 65.7172L17.3597 65.7485C17.3597 65.7485 17.3568 64.833 17.3328 64.6222C17.3066 64.4091 17.1728 63.4193 17.781 62.9192C18.3871 62.4105 18.7798 62.165 20.2733 62.1281H20.2732C21.7558 62.0911 22.2052 62.955 22.2052 62.955C22.2052 62.955 22.7117 63.6584 22.7117 64.1171C22.7117 64.5736 22.5637 64.8591 22.5638 64.8591C22.5638 64.8591 21.7558 66.2187 21.4745 66.8883C21.1911 67.5557 20.0872 69.765 20.4077 71.6217C20.7304 73.474 23.6351 74.3393 23.6351 74.3393C23.6351 74.3393 25.9483 74.8822 29.247 74.3974L36.0626 73.3023C36.2348 75.7721 36.4383 80.611 36.41 82.2328L36.41 82.2328ZM101.028 64.1707C101.031 64.1822 102.147 68.6308 102.996 71.5099C103.842 74.3927 104.219 77.241 104.345 77.8345C104.472 78.4302 104.442 79.4902 103.655 80.1185C102.872 80.7468 100.954 81.2823 100.548 81.3432C100.141 81.4063 99.3796 81.2509 98.3745 80.9052C97.3673 80.5617 96.3664 80.4985 96.3664 80.4985C96.3664 80.4985 93.9479 80.0891 91.373 80.8739C88.796 81.6544 86.8459 84.2824 86.6889 87.574C86.5341 90.8633 86.5636 92.5295 87.8543 95.4406C89.1407 98.3538 91.467 100.014 93.2243 100.044C94.9859 100.075 96.426 99.1692 97.4332 97.7604C98.434 96.3472 98.7197 96.1289 98.7197 96.1289C99.9144 95.4724 102.961 95.1861 104.502 95.7535C106.046 96.3144 108.876 98.0859 110.437 101.577C111.699 104.399 112.095 107.554 112.028 113.234L113.292 114.209L113.324 113.551L112.014 113.239C108.439 113.535 104.296 114.021 104.296 114.021C104.296 114.021 94.9413 115.346 86.3752 117.981C79.1019 120.216 77.7197 121.45 77.7197 121.45C77.7197 121.45 76.1668 122.742 77.4597 124.605C77.4597 124.605 78.2032 125.776 79.7054 126.952C81.1988 128.13 82.4035 129.252 82.2334 129.821C82.059 130.395 81.6014 130.653 81.6014 130.653C81.6014 130.653 79.5082 132.512 70.9333 133.947C70.9333 133.947 65.415 135.009 63.7166 133.348C62.0204 131.683 62.7664 130.568 62.7664 130.568C62.7664 130.568 62.8817 130.193 64.1201 129.424C64.1201 129.424 66.1903 128.128 65.5275 125.669C64.8669 123.202 60.8891 120.136 56.5896 120.162C56.5896 120.162 51.5665 120.175 38.7183 121.816C38.7183 121.816 38.7016 121.816 38.66 121.825C38.6644 121.265 38.6522 120.668 38.6152 120.028C38.4168 116.419 38.1533 110.853 37.665 107.612C37.1788 104.37 36.2823 99.3564 33.3215 99.2085C33.3215 99.2085 31.8576 99.0956 29.758 101.13C27.8307 102.991 26.0887 99.5907 25.9928 97.5145C25.8772 95.0774 26.2787 92.6164 26.8848 91.4402C27.4887 90.264 29.1572 90.2073 29.4711 90.2334C29.7894 90.2616 30.6797 90.6027 31.7437 91.2614C32.8077 91.9245 34.2713 91.9279 35.1369 91.0648C35.9981 90.2082 37.2036 89.2023 37.6963 85.4151C38.1847 81.63 38.1833 77.7052 37.7232 73.0028L37.7143 72.9803C39.4697 72.6607 42.3786 72.1759 45.5226 71.8674C50.5938 71.3717 55.9579 71.2987 58.2123 71.5813C58.2123 71.5813 59.2676 71.7148 59.0953 72.0909C58.9601 72.3865 58.1764 72.9937 58.1764 72.9937C58.1764 72.9937 57.8826 73.1679 56.751 74.4419C55.6195 75.7159 55.2884 76.9533 55.2405 78.0534C55.1881 79.1513 56.367 82.3932 60.5073 83.2606C64.6519 84.1237 69.3959 82.5186 69.3959 82.5186C69.3959 82.5186 72.0781 81.903 74.833 79.4524C74.9123 79.3889 74.945 79.3496 75.0526 79.2513C75.1916 79.1227 75.3309 79.0142 75.4695 78.8758C75.606 78.7397 75.6701 78.5984 75.7833 78.4602C75.8138 78.42 75.8383 78.3859 75.8684 78.3439C78.1417 75.3971 75.4964 72.1222 75.4964 72.1222C75.4964 72.1222 75.0154 71.4612 74.0844 71.1612C74.0844 71.1612 73.6786 71.0511 73.9141 70.7902C74.0488 70.6409 74.3347 70.2018 74.9271 69.7487C75.3529 69.4812 75.9201 69.1742 76.8994 68.8235C76.9042 68.8222 76.9171 68.8204 76.9219 68.819C79.1162 68.2549 85.604 66.2121 101.024 64.1794L101.028 64.1707ZM219.843 64.2959L220.081 64.5506L220.883 65.5697C223.285 74.5789 224.576 84.0511 224.576 93.8181C224.576 96.1516 224.487 98.4666 224.343 100.764L223.55 102.096L224.007 103.218C223.554 103.918 223.188 104.457 222.371 105.801C219.609 110.339 219.175 114.003 219.175 114.003C219.175 114.003 218.912 115.428 219.059 116.256C219.194 117.028 219.469 117.38 219.48 117.606C219.499 117.832 219.319 119.691 218.373 121.463C217.42 123.235 216.593 123.702 216.593 123.702C216.593 123.702 214.944 124.89 214.715 124.047C214.488 123.199 214.556 122.481 214.639 121.946C214.717 121.407 215.271 118.514 215.19 117.44C215.112 116.366 214.146 117.23 214.146 117.23C214.146 117.23 213.919 117.489 213.496 118.026C213.071 118.565 210.689 121.587 209.78 122.648C207.624 125.165 205.666 126.971 200.421 131.189C200.405 131.196 200.391 131.212 200.38 131.22L200.358 131.256C199.9 130.498 199.433 129.939 199.184 129.616C198.564 128.822 197.444 129.175 196.068 125.861C194.49 122.072 194.303 118.933 194.428 116.993C194.552 115.056 195.015 114.313 195.911 113.485C196.807 112.652 200.761 113.024 200.761 113.024C200.761 113.024 202.699 113.422 204.437 110.557C206.161 107.694 206.037 103.01 205.481 100.675C204.925 98.3353 204.127 96.3027 200.914 95.9636C197.7 95.6266 196.252 99.5661 196.252 99.5661C196.252 99.5661 195.603 101.074 194.921 101.94C194.243 102.798 192.393 102.552 192.393 102.552C191.588 102.461 190.6 102.765 189.641 100.795C188.688 98.8278 186.489 93.6528 186.489 93.6528C185.752 91.9048 185.287 90.3592 184.994 89.1831L183.41 88.535L183.226 90.1306C184.521 94.6505 187.231 100.351 188.354 102.682C189.497 105.053 192.061 105.295 193.912 104.836C195.765 104.371 196.377 103.355 197.4 101.135C198.42 98.9218 198.973 98.7661 198.973 98.7661C198.973 98.7661 199.38 98.1822 201.263 98.3996C203.147 98.6148 203.549 99.9371 203.549 99.9371C203.549 99.9371 204.63 102.491 204.414 105.171C204.201 107.845 203.613 109.053 202.994 110.007C202.374 110.962 199.161 110.651 199.161 110.651C199.161 110.651 193.634 110.036 193.141 116.658C192.651 123.278 194.867 127.864 194.867 127.864C195.674 129.618 196.506 130.544 197.184 131.037C197.865 131.526 198.511 132.177 198.511 132.177C198.511 132.177 198.627 132.28 198.794 132.499H198.789C194.849 135.682 193.685 136.713 190.546 138.926C190.546 138.926 186.962 141.591 183.042 143.7C179.114 145.804 174.503 145.555 174.503 145.555C174.503 145.555 173.25 145.42 173.858 144.518C174.46 143.616 175.238 141.42 175.539 140.303C175.844 139.183 176.443 136.347 174.158 135.444C171.873 134.542 167.578 135.869 167.578 135.869C167.578 135.869 157.71 138.491 153.687 142.895C149.78 147.176 153.064 149.081 153.064 149.081C153.064 149.081 154.598 150.146 156.085 150.673C157.489 151.17 157.205 151.614 156.856 151.875C156.856 151.875 152.45 154.674 147.246 156.166C147.246 156.166 140.125 158.344 133.203 158.789C126.334 159.232 123.428 159.406 123.417 159.406L123.422 159.402C122.681 157.949 121.911 156.648 121.911 156.648C121.911 156.648 121.734 156.391 121.508 155.947V155.942C121.395 155.719 121.269 155.447 121.145 155.138V155.133C121.021 154.823 120.899 154.475 120.795 154.096V154.091C120.692 153.712 120.603 153.303 120.549 152.872V152.867C120.442 152.001 120.468 151.048 120.746 150.074V150.069C120.886 149.582 121.092 149.091 121.374 148.603V148.598C121.655 148.109 121.962 147.664 122.279 147.257V147.253C122.597 146.845 122.928 146.48 123.261 146.149C124.592 144.824 125.96 144.089 126.726 143.744L126.73 143.74C127.11 143.569 127.336 143.499 127.34 143.498C127.34 143.498 130.611 142.775 133.875 143.53C135.425 143.884 136.582 143.76 137.358 143.552C137.744 143.449 138.033 143.329 138.228 143.23L138.232 143.226C138.42 143.129 138.524 143.056 138.524 143.056C138.524 143.056 138.638 143.003 138.824 142.868L138.828 142.863C139.014 142.728 139.266 142.511 139.537 142.175C139.63 142.059 139.728 141.909 139.824 141.764C139.867 141.698 139.91 141.648 139.954 141.576C140.09 141.347 140.226 141.083 140.352 140.785C140.354 140.782 140.356 140.779 140.357 140.776C140.397 140.682 140.427 140.56 140.465 140.459C140.549 140.234 140.634 140.016 140.707 139.753C140.75 139.594 140.78 139.398 140.819 139.225C140.872 138.983 140.93 138.759 140.971 138.488C140.972 138.484 140.975 138.482 140.976 138.479C141.188 137.071 141.234 135.21 140.949 133.361C140.948 133.358 140.949 133.355 140.949 133.352C140.854 132.736 140.721 132.124 140.545 131.528V131.524C139.84 129.135 138.436 127.043 135.924 126.352C133.406 125.663 131.482 125.976 130.187 126.455C129.541 126.695 129.052 126.972 128.725 127.193L128.72 127.198C128.398 127.417 128.227 127.578 128.227 127.578V127.582C128.225 127.585 127.55 128.322 126.766 129.12L126.761 129.125C125.977 129.922 125.083 130.775 124.646 130.993C123.765 131.43 122.413 132.209 122.413 132.209C122.413 132.209 120.526 133.339 119.244 133.621C118.397 133.81 115.349 129.773 115.035 126.671V126.666C114.89 125.236 114.671 123.938 114.515 122.264C114.513 122.239 114.513 122.204 114.511 122.179C114.36 120.521 114.27 118.501 114.372 115.613V115.577L114.367 115.572C115.258 115.52 116.165 115.477 117.075 115.443C124.862 115.162 128.721 114.237 132.862 113.311C137 112.387 142.823 109.013 143.687 108.363C144.55 107.721 146.362 106.925 146.726 104.108C147.092 101.292 143.754 99.4189 143.754 99.4189C143.754 99.4189 141.096 98.0204 140.535 97.3986C139.977 96.7747 140.495 96.1739 140.495 96.1739C140.495 96.1739 141.999 92.9454 146.811 91.0561C151.618 89.1603 154.853 88.652 156.878 88.4324C158.91 88.2172 159.598 88.9449 159.877 89.2906C160.156 89.6319 160.155 90.348 159.922 91.0785C159.699 91.7481 158.953 93.3328 158.514 94.1089C158.085 94.8829 157.377 96.7528 157.829 97.6355C158.282 98.516 159.663 98.9272 161.45 98.6054C163.24 98.2815 167.965 96.9482 172.105 95.2263C176.247 93.5045 183.168 90.1309 183.168 90.1309C183.168 90.1309 183.186 90.1215 183.217 90.1041L183.732 89.3576L184.994 89.1832C187.216 87.9614 191.018 85.7246 193.733 83.4397C197.814 80.0199 201.798 76.4284 202.814 75.5284C203.828 74.6218 204.76 73.8937 205.665 73.9371C206.57 73.9828 207.265 74.6241 207.821 77.0525C208.383 79.4831 208.487 81.4837 208.749 82.6664C209.004 83.847 209.371 85.2198 210.775 85.5002C212.179 85.7807 214.071 84.5603 214.782 83.9537C215.501 83.3537 216.79 81.3953 216.705 78.7733C216.705 78.7733 216.854 75.286 215.046 71.975C215.046 71.975 214.286 70.6417 214.006 70.2765C213.815 70.0199 213.664 69.7562 213.984 69.1322C214.307 68.5105 215 67.3486 216.292 66.6203C217.274 66.0637 218.213 65.9315 218.753 65.7576C218.753 65.7576 219.359 65.6162 220.12 65.1944L219.843 64.2959ZM36.2754 125.942C35.907 127.422 35.8707 128.909 36.2261 131.529C36.5772 134.159 37.9936 139.616 40.0496 141.04C42.7793 142.934 44.5634 142.902 46.4057 142.761C48.2414 142.615 49.512 141.21 49.512 141.21C49.512 141.21 50.2328 140.47 51.0046 140.696C51.7808 140.924 53.9391 142.133 55.4915 145.228C57.046 148.324 57.3891 151.731 54.8012 152.34C52.2132 152.935 47.7593 150.503 47.7593 150.503C47.7593 150.503 45.2273 149.096 43.1604 150.646C41.087 152.196 41.0311 154.574 42.0667 157.498C42.6357 159.102 43.772 161.713 45.3657 164.43L46.9122 165.078L46.7598 164.873L45.3388 164.43C42.8555 163.95 38.2687 162.979 36.4547 162.075C34.7999 161.248 33.9126 161.396 34.1328 159.679C34.353 158.011 32.4878 155.687 32.4878 155.687C32.4878 155.687 29.9013 152.89 27.5706 151.151C25.2399 149.407 24.2492 149.926 24.2492 149.926C24.2492 149.926 23.1932 150.485 24.1416 152.742C25.0922 155.003 26.0152 155.795 26.0152 155.795C26.0152 155.795 26.4719 156.27 26.2125 156.398C25.9552 156.529 25.1562 155.929 24.4912 155.366C24.2017 155.126 22.8583 153.859 21.6808 152.764C21.2238 152.05 20.7319 151.362 20.2912 150.637L20.2867 150.628L19.6278 149.515L19.6233 149.51C12.624 137.677 7.81214 124.409 5.68305 110.271C6.17811 110.854 6.73844 111.504 7.64186 112.434C10.0052 114.871 10.7526 113.337 10.7526 113.337C10.7526 113.337 11.3054 111.804 10.6361 109.02C9.96677 106.226 10.0841 104.573 11.3443 104.617C12.6045 104.658 16.2666 105.401 17.409 108.425C17.409 108.425 17.8832 109.837 17.4493 111.643C17.0133 113.454 17.095 115.057 17.409 116.631C17.7251 118.205 19.0634 119.692 20.6005 120.913C22.1397 122.135 26.5891 124.251 30.9234 124.525C35.2556 124.799 36.5915 124.576 36.5915 124.576C36.4999 125.009 36.391 125.487 36.2754 125.942V125.942ZM223.967 104.939C221.341 130.958 209.625 154.289 192.012 171.725C192.025 171.499 193.016 170.607 193.016 170.607C193.016 170.607 194.294 169.247 195.123 168.162C195.953 167.08 195.423 167.143 195.423 167.143C195.423 167.143 195.018 167.04 193.271 168.144C191.525 169.249 190.291 170.013 190.291 170.013C190.291 170.013 186.535 172.157 184.15 173.539C184.131 173.55 184.088 173.573 184.069 173.584C184.497 172.918 184.946 172.274 185.4 171.653V171.649C186.77 169.781 188.207 168.142 189.367 166.853C191.249 164.759 193.504 161.364 193.504 161.364C193.504 161.364 194.899 158.984 194.957 157.873C194.957 157.869 194.957 157.868 194.957 157.864C194.965 157.707 194.942 157.58 194.889 157.484V157.48C194.606 156.977 193.355 157.517 191.214 159.111C189.532 160.365 188.239 161.144 187.144 161.699C186.607 161.93 186.077 162.113 185.597 162.164C183.345 162.416 183.439 160.106 183.589 159.093C183.742 158.071 184.272 155.733 185.907 154.807C187.542 153.881 189.829 153.916 191.434 153.698C193.043 153.481 193.778 153.023 193.778 153.023C193.778 153.023 196.406 151.358 198.135 148.558C199.868 145.754 201.412 141.225 201.591 136.731C201.658 135.077 201.434 133.792 201.093 132.78H201.102C205.412 129.358 209.538 125.016 209.538 125.016C209.538 125.016 212.277 122.277 213.653 119.894C214.95 117.659 213.711 121.825 213.711 121.825C213.711 121.825 213.016 125.118 214.132 126.339C215.02 127.307 217.539 124.614 217.539 124.614C217.539 124.614 219.037 122.901 219.641 120.135C220.531 116.059 220.045 115.246 220.045 115.246C220.045 115.246 219.509 114.4 219.843 113.395C220.169 112.43 222.213 107.189 223.967 104.938L223.967 104.939ZM199.6 132.552L199.309 132.91L199.56 133.96C200.018 135.208 200.349 137.184 199.874 140.088C198.852 146.337 197.064 148.339 197.064 148.339C197.064 148.339 194.835 151.446 192.245 151.759C189.646 152.065 186.803 151.973 184.213 154.838C181.335 158.012 181.927 162.101 181.927 162.101C181.927 162.101 182.177 164.597 184.867 163.921C187.546 163.24 190.295 161.182 192.366 159.545C194.431 157.912 193.164 160.099 193.164 160.099C191.343 163.638 187.884 167.183 187.884 167.183C187.884 167.183 186.678 168.231 184.024 171.957C183.335 172.923 182.787 173.757 182.312 174.509C179.594 175.975 175.758 177.909 173.199 178.957C170.086 180.233 168.489 180.512 168.766 180.105C169.041 179.701 169.77 179.104 169.77 179.104C169.77 179.104 170.644 178.237 170.644 177.361C170.644 177.361 170.918 176.089 167.144 176.878C163.374 177.663 159.967 179.511 159.967 179.511C159.967 179.511 154.356 182.081 155.682 183.614C155.682 183.614 155.935 184.02 157.063 184.378C158.196 184.741 155.064 185.697 155.064 185.697C152.083 186.671 149.799 187.117 146.906 187.713C143.451 188.422 141.27 188.909 139.577 189.282C139.575 189.276 139.574 189.27 139.572 189.264L139.586 189.259C139.044 187.223 137.924 185.443 137.242 184.383C137.105 184.171 136.88 183.785 136.798 183.654V183.65C136.626 183.376 136.427 183.134 136.17 182.93C135.923 182.733 135.619 182.576 135.242 182.465C134.446 182.228 133.311 182.201 131.58 182.488C128.188 183.053 124.198 184.745 124.198 184.745C124.198 184.745 123.168 185.287 121.755 185.777C120.342 186.268 118.545 186.706 117.008 186.501C115.853 186.348 115.04 185.817 114.48 185.16C114.294 184.943 114.135 184.713 114 184.477V184.472C113.866 184.236 113.758 183.997 113.669 183.761V183.757C113.58 183.522 113.509 183.293 113.458 183.077V183.073C113.355 182.639 113.32 182.261 113.328 182.018C113.337 181.777 113.384 181.545 113.471 181.321V181.316C113.56 181.092 113.695 180.877 113.875 180.673C114.237 180.262 114.795 179.895 115.596 179.582C117.198 178.951 120.967 178.108 126.461 177.825C129.893 177.649 131.977 176.187 133.059 175.117C133.71 174.474 134.001 173.977 134.001 173.977C134.271 173.589 134.62 173.018 134.79 172.368V172.363C134.959 171.714 134.952 170.984 134.503 170.271L134.498 170.267C134.349 170.03 134.148 169.794 133.893 169.565L133.888 169.561C133.632 169.331 133.316 169.11 132.934 168.895L132.929 168.89C132.162 168.462 131.584 168.169 131.123 167.951L131.118 167.947C130.659 167.73 130.316 167.591 130.024 167.469L130.02 167.464C129.436 167.219 129.054 167.048 128.317 166.486C127.577 165.92 126.807 165.293 126.143 164.569C125.813 164.208 125.508 163.825 125.246 163.411L125.242 163.407C125.105 163.189 125.021 162.939 124.91 162.705C124.81 162.493 124.68 162.297 124.605 162.07V162.066C124.595 162.032 124.573 161.987 124.561 161.949C124.505 161.785 124.444 161.602 124.377 161.435L124.368 161.431L124.214 160.704C122.077 159.852 123.128 160.612 124.399 161.435C125.995 161.305 128.057 161.156 129.904 161.064C133.595 160.886 139.37 160.04 142.723 159.308C146.081 158.564 151.159 157.005 154.915 155.07C158.674 153.127 158.855 151.767 158.855 151.767C158.855 151.767 159.571 150.737 158.004 149.604C156.436 148.465 155.744 148.774 154.355 147.369C152.971 145.963 155.565 143.847 155.565 143.847C155.565 143.847 156.903 141.977 164.333 139.123C171.757 136.27 173.012 137.223 173.392 137.536C173.773 137.849 173.82 138.874 173.661 139.565C173.508 140.259 172.587 142.728 172.092 144.026C171.597 145.317 171.4 147.084 173.41 147.508C175.42 147.93 178.237 147.492 180.882 146.547C187.187 144.299 189.071 141.553 199.488 134.014C199.515 133.996 199.536 133.98 199.556 133.969L199.6 132.552ZM25.8762 151.696C25.8762 151.696 26.1667 151.588 27.1761 152.349C28.1834 153.107 30.4415 154.686 31.5599 156.049C32.6784 157.402 32.6088 158.615 32.6088 158.615C32.6088 158.615 32.3849 159.839 33.5949 161.158C34.8006 162.471 37.3741 164.885 46.3698 166.267C46.4243 166.276 46.4452 166.279 46.4998 166.285L46.6746 165.065L46.4461 165.203L46.5133 166.281C47.586 167.907 48.8171 169.499 50.1754 170.862C50.1754 170.862 55.5483 176.791 58.5396 180.548C58.5396 180.548 58.7178 180.892 58.1989 180.584C57.68 180.266 55.4354 179.233 54.2275 179.35C53.0175 179.467 53.2459 180.208 53.2459 180.208C53.2459 180.208 53.7672 182.934 61.991 187.525C61.991 187.525 64.9546 189.183 66.823 189.183C66.823 189.183 67.4266 189.27 68.1722 188.437C68.9266 187.609 69.1505 187.698 69.6693 187.869C70.1861 188.037 70.8758 188.409 73.4659 190.274C76.0561 192.137 81.0895 195.001 82.8969 196.21C83.4711 196.593 83.8044 196.862 84.0489 197.099C80.1426 196.788 76.4209 196.327 74.4252 196.031C73.224 195.562 72.0284 195.087 70.8482 194.578C70.4523 194.337 70.3087 194.226 69.8755 193.966C68.7484 193.283 65.3573 191.99 65.3573 191.99C65.3573 191.99 65.0535 191.882 64.9987 191.861C48.4216 183.523 34.2461 171.143 23.7875 156C23.9275 156.114 24.0301 156.221 24.1775 156.336C27.5547 158.971 27.5752 157.922 27.5752 157.922C27.5752 157.922 27.7102 157.051 26.9297 156.094C26.147 155.136 24.8922 153.11 25.204 152.367C25.5179 151.632 25.8763 151.696 25.8763 151.696L25.8762 151.696ZM121.768 161.654C122.634 163.741 123.293 164.893 124.606 166.321C126.02 167.854 128.252 169.042 130.89 170.049C133.532 171.053 132.333 172.838 132.333 172.838C130.824 176.092 126.332 176.223 125.013 176.378C123.697 176.532 120.934 176.782 118.353 177.348C115.776 177.913 113.357 178.257 111.911 179.918C110.47 181.579 111.036 183.298 111.884 185.116C112.73 186.931 114.993 187.902 118.102 187.78C121.211 187.658 123.228 186.749 125.112 185.934C126.996 185.116 130.26 184.174 131.235 183.896C132.207 183.615 133.53 183.052 134.503 184.463C135.556 185.987 136.671 188.154 137.179 189.791C137.21 189.784 137.241 189.782 137.273 189.778C137.273 189.778 134.629 190.415 130.235 192.115C125.842 193.816 117.214 195.217 117.214 195.217C117.214 195.217 111.675 195.855 111.163 196.581C110.653 197.3 111.548 197.667 111.548 197.667C111.548 197.667 112.339 198.147 115.193 198.279C115.193 198.279 116.175 198.279 116.219 198.36C116.256 198.447 116.316 198.51 115.704 198.704C115.08 198.895 113.843 199.385 109.648 199.911C105.427 200.445 105.515 199.768 105.515 199.768C105.515 199.768 105.494 199.6 105.685 199.298C105.875 199.007 105.703 198.493 105.044 198.132C105.044 198.132 104.134 197.538 101.06 197.564C97.9898 197.583 91.8745 197.602 86.1601 197.265C86.0288 197.257 85.8768 197.242 85.7432 197.233L85.7387 197.229L86.0928 197.247C85.7374 196.925 85.2841 196.637 84.7391 196.348C83.2151 195.544 76.6046 191.187 74.5596 189.809C72.5188 188.433 68.9484 186.113 67.3743 186.595C66.1664 186.969 66.339 187.454 65.6217 187.807C64.9 188.148 64.1218 187.919 62.3406 186.971C60.5571 186.029 59.2356 185.395 55.7559 182.103C53.0415 179.527 59.2342 181.844 59.2342 181.844C59.2342 181.844 60.5846 182.413 59.9828 181.008C59.3789 179.604 56.33 175.935 53.4564 172.981C51.1279 170.596 49.804 168.935 48.1448 166.526L47.0735 166.2L48.1672 166.535C56.0117 167.664 60.2786 167.756 60.2786 167.756C60.2786 167.756 70.547 168.113 73.3224 168.113C76.0957 168.113 75.5771 169.561 75.5771 169.561C75.5771 169.561 75.4221 170.341 75.0885 170.965C74.7505 171.589 73.9462 173.932 74.7747 175.18C74.7747 175.18 76.0505 178.286 84.3267 178.505C84.3267 178.505 91.5704 179.084 96.6264 177.008C101.682 174.934 97.1195 172.06 97.1195 172.06C97.1195 172.06 95.3912 171.016 94.6586 170.455C93.9871 169.944 94.2568 169.406 94.3942 169.047C94.525 168.695 95.0424 168.268 95.6223 167.979C96.2023 167.688 98.3213 166.553 107.317 164.234C116.308 161.909 121.678 161.663 121.679 161.663C121.679 161.663 121.722 161.658 121.768 161.655V161.654ZM194.302 168.471C194.388 168.5 194.292 168.703 193.764 169.284C192.358 170.834 191.653 171.474 191.653 171.474C191.653 171.474 190.487 172.645 190.595 173.083C185.919 177.551 180.854 181.61 175.445 185.205C175.76 184.834 176.034 184.443 175.902 184.338C175.623 184.123 174.539 184.892 174.539 184.892C174.539 184.892 173.657 185.594 172.841 185.974C172.798 185.994 172.757 186.015 172.715 186.032C172.73 186.027 172.745 186.024 172.76 186.019C172.736 186.029 172.717 186.035 172.693 186.045C172.7 186.042 172.707 186.035 172.715 186.032C172.661 186.052 172.609 186.059 172.554 186.077C172.348 186.15 172.14 186.225 171.976 186.215C171.868 186.208 171.804 186.173 171.774 186.117C171.683 185.95 171.9 185.597 172.177 185.25C172.548 184.788 173.024 184.333 173.024 184.333C173.024 184.333 174.998 182.12 176.884 181.781C177.355 181.696 177.729 181.602 178.04 181.5C178.974 181.193 179.34 180.802 180.035 180.27C180.962 179.562 181.114 178.791 183.002 175.372C183.07 175.246 183.144 175.121 183.213 174.992L183.217 174.987C185.624 173.646 186.479 173.232 187.05 172.895C189.629 171.365 192.705 169.496 193.514 168.859C193.514 168.859 194.16 168.422 194.302 168.47L194.302 168.471ZM181.756 175.895C181.704 175.978 182.171 174.742 182.124 174.822C180.922 176.76 180.376 177.933 180.376 177.933C180.376 177.933 179.762 179.132 179.699 179.81C179.64 180.491 179.147 180.396 179.147 180.396C179.147 180.396 178.171 180.396 176.799 180.932C176.658 180.976 176.677 180.951 176.48 181.017C176.48 181.017 176.324 181.105 176.27 181.133C175.764 181.374 175.222 181.698 174.647 182.126C174.566 182.18 174.52 182.201 174.436 182.26C174.375 182.308 174.32 182.35 174.262 182.398C173.877 182.711 173.612 182.968 173.284 183.256C173.009 183.498 172.704 183.752 172.469 183.972C172.07 184.345 171.777 184.634 171.491 184.928C171.388 185.034 171.316 185.097 171.227 185.192C171.137 185.287 170.989 185.431 170.913 185.514C170.862 185.577 170.814 185.645 170.765 185.71C170.625 185.874 170.313 186.22 170.313 186.22C170.313 186.22 169.385 187.449 170.281 187.449C171.175 187.449 173.273 186.37 174.078 185.661C174.88 184.95 174.481 185.54 174.481 185.54C174.225 185.827 173.869 186.145 173.553 186.452C163.998 192.524 153.436 197.149 142.176 200.058C141.011 199.984 140.154 199.83 139.747 199.776C138.807 199.65 138.049 199.464 137.829 198.994C137.611 198.527 138.868 198.552 138.868 198.552C138.868 198.552 142.54 198.148 145.937 197.054C149.332 195.954 150.145 194.918 150.016 194.136C149.892 193.355 148.171 193.414 146.126 194.073C144.085 194.734 141.034 195.704 140.316 195.861C140.029 195.921 139.747 195.925 139.478 195.915C139.362 195.91 139.24 195.914 139.137 195.892C139.056 195.875 138.979 195.855 138.909 195.825C138.879 195.812 138.847 195.8 138.819 195.785C138.711 195.725 138.615 195.652 138.555 195.552L138.55 195.548C138.516 195.487 138.491 195.409 138.461 195.338C138.435 195.28 138.404 195.232 138.384 195.168C138.341 195.026 138.316 194.871 138.322 194.703C138.333 194.366 138.475 193.984 138.868 193.577C139.067 193.372 139.219 193.176 139.339 192.996C139.458 192.816 139.543 192.655 139.604 192.517C139.726 192.243 139.751 192.07 139.751 192.07C139.767 191.996 139.763 191.918 139.774 191.843C139.852 191.358 139.863 190.854 139.796 190.336C139.943 190.306 140.021 190.292 140.021 190.292C140.021 190.292 145.044 189.119 147.157 188.763C149.263 188.398 154.033 187.377 156.068 186.398C158.091 185.422 159.111 184.652 159.349 184.061C159.582 183.469 158.493 183.127 158.493 183.127C158.493 183.127 157.213 182.826 157.385 182.385C157.553 181.939 158.024 181.557 160.03 180.664C162.034 179.77 164.545 178.796 167.063 178.179C169.579 177.566 168.663 178.603 168.663 178.603C168.663 178.603 167.152 180.133 166.955 180.726C166.766 181.322 167.021 181.346 167.215 181.451C167.407 181.559 168.623 181.514 169.447 181.303C170.283 181.09 176.996 178.54 181.088 176.203C181.191 176.147 181.293 176.085 181.389 176.029L181.756 175.895ZM137.443 190.922C137.652 192.348 137.214 192.827 136.892 193.358C136.547 193.921 135.605 194.645 136.076 195.932C136.547 197.215 139.747 196.806 141.598 196.245C143.454 195.68 145.024 195.178 146.251 194.739C147.476 194.304 147.82 194.922 147.82 194.922C147.82 194.922 148.353 195.3 146.565 196.241C144.773 197.18 141.472 197.618 139.904 197.805C138.33 197.994 138.803 197.712 136.448 198.525C134.089 199.342 136.296 200.062 136.296 200.062C137.552 200.389 138.719 200.568 139.778 200.661C131.659 202.565 123.197 203.585 114.493 203.585C110.065 203.585 105.704 203.309 101.414 202.802C101.652 202.612 100.929 202.32 100.929 202.32C100.929 202.32 98.9748 201.398 94.6317 201.055C94.6317 201.055 92.8812 200.936 91.3551 201.082C91.2503 201.092 91.1503 201.07 91.0458 201.073C89.976 200.841 88.9123 200.597 87.8543 200.335C87.2953 200.133 86.1501 199.675 86.5813 199.106C86.856 198.747 86.8773 198.376 86.7203 198.015C89.1254 198.167 92.2964 198.328 92.2964 198.328C92.2964 198.328 98.7854 198.571 102.337 198.288C103.935 198.153 103.44 198.985 103.44 198.985C103.44 198.985 102.977 199.754 103.892 200.134C103.892 200.134 105.573 201.089 111.181 200.474C116.788 199.852 118.021 198.601 118.021 198.601C118.021 198.601 118.672 198.001 117.254 197.734C116.14 197.519 116.143 197.627 114.695 197.479C113.245 197.333 112.519 197.029 113.48 196.773C114.442 196.521 116.04 196.393 116.04 196.393C116.04 196.393 120.94 195.714 124.901 194.69C124.901 194.69 129.127 193.697 133.319 192.227C134.97 191.653 136.364 191.229 137.439 190.926L137.443 190.922ZM76.8008 196.934C79.6448 197.303 83.2166 197.713 84.4388 197.837C84.4266 198.03 84.3668 198.235 84.2505 198.503C84.0279 199.017 84.4676 199.344 84.9094 199.566C82.1565 198.802 79.4621 197.901 76.8008 196.934ZM94.5376 201.582C95.2277 201.558 95.8108 201.57 96.5009 201.712C97.8788 201.999 99.2907 202.345 99.4324 202.463C99.4873 202.507 99.3412 202.515 99.2127 202.525C97.3579 202.268 95.519 201.961 93.6949 201.613C93.9476 201.6 94.3147 201.59 94.5376 201.582L94.5376 201.582Z" fill="black"/>
<path d="M39.8893 20.0044H40.1444C39.7956 21.0502 38.4242 22.485 37.8159 23.446C37.4758 23.9851 37.2665 24.6895 36.7825 25.0787C36.8653 25.1722 36.776 25.0851 36.8697 25.1656C37.0615 25.2787 38.6422 24.8634 38.9409 24.6526C39.1197 24.6852 39.1066 24.6765 39.2025 24.7374C39.2941 24.8895 38.1538 26.8918 37.9053 27.1484V27.2353C38.3326 27.1853 38.9998 27.1136 39.2876 26.8875C40.1226 26.2375 40.3123 24.8504 40.9227 23.9612C40.8944 23.8177 40.8661 23.6742 40.8355 23.5351C40.3515 23.4481 39.3508 23.5786 38.9387 23.8764H38.8537C39.0521 22.8481 40.7461 20.9502 41.3523 20.0914C42.3421 18.6848 43.273 17.3325 44.2847 15.9607C44.8145 15.2411 45.5601 14.6084 46.0964 13.8975C46.6982 13.0996 47.337 12.0496 48.1655 11.4908V11.3191H47.821C47.4155 11.6126 46.3494 11.793 45.8414 12.0887C45.9111 12.3822 45.8828 12.3083 46.0986 12.4322C45.7956 13.2714 44.7948 13.8953 44.2847 14.5867C43.4758 15.6737 42.5754 16.6912 41.7839 17.7695C41.5158 18.1261 41.337 18.6848 41.0078 18.9718C40.4911 19.424 39.0172 19.374 38.4242 19.8327H38.2498C38.3719 19.1109 40.2272 16.8064 40.7505 16.3064V16.2194C39.861 16.3433 39.172 16.8129 38.5942 17.2477C38.6902 17.4456 38.6749 17.4064 38.8559 17.5086C38.5397 18.0261 38.0688 18.4109 37.7331 18.8848C37.3035 19.4827 37.0681 20.1936 36.6124 20.7784C36.6429 20.8654 36.6735 20.9458 36.6996 21.0349C37.249 20.9871 39.5448 20.261 39.8893 20.0044ZM115.711 31.6248C116.143 31.7682 116.575 31.9096 117.011 32.053C117.358 32.0575 117.724 32.0486 117.953 31.9661C117.933 30.5443 117.159 29.9812 116.66 29.042C116.413 28.5637 116.278 27.905 115.886 27.5788C116.036 27.0527 117.467 26.9092 118.04 26.7179C119.44 26.2592 121.029 25.8005 122.442 25.3417C123.105 25.1265 123.892 25.1743 124.428 24.8287C124.742 24.8613 124.903 24.8917 125.032 25.0852C125.342 25.5461 125.599 28.7094 125.372 29.6442C124.504 33.2596 123.419 36.0859 121.147 38.2491V38.3339C121.988 38.1991 122.39 37.386 122.956 36.9599C125.248 35.2337 126.8 32.6727 127.618 29.4724C128.097 27.5919 127.315 25.7483 128.049 24.1417H127.964C127.805 23.7329 125.605 22.9394 124.943 22.9351C124.585 23.3199 124.07 23.8395 123.56 24.0547C122.778 24.3852 121.733 24.2917 121.062 24.7395C120.436 24.6874 119.961 23.5003 120.373 23.0199C120.351 22.8242 120.355 22.7764 120.286 22.6764C119.765 22.2611 118.435 22.3046 117.523 22.3329C117.233 22.6046 116.976 22.659 116.836 23.1112H116.751C116.706 23.2764 116.791 23.2199 116.836 23.2807C116.893 23.3155 117.192 23.2654 117.355 23.3677C118.332 23.4699 118.31 24.5982 118.823 25.1743C118.764 25.3244 118.801 25.2613 118.731 25.3483C118.393 25.6157 115.897 26.3331 115.367 26.4679C114.964 26.5679 114.464 26.3201 114.161 26.2918C113.429 26.2309 112.781 26.6397 112.35 26.894C112.583 27.2353 113.296 27.1506 113.557 27.4941C114.473 28.7094 114.883 30.2747 115.711 31.6248ZM132.872 30.4138C133.275 30.616 133.275 31.1356 133.478 31.5313C133.882 32.3378 134.431 33.314 134.686 34.201V34.888C134.884 35.4359 135.549 35.5054 135.985 35.8337C136.326 35.7881 136.448 35.7011 136.67 35.5772C136.524 33.9401 135.523 32.5813 134.945 31.2747C134.769 30.866 134.492 30.2921 134.431 29.8986C134.385 29.6616 134.564 29.5311 134.431 29.2985C134.32 29.0311 134.27 29.1137 134.086 28.9528C133.96 28.8659 134.019 28.9181 134.086 28.7833C134.239 28.4702 134.551 28.1593 134.688 27.8354C134.978 27.1549 134.967 26.5831 135.552 26.2027C135.464 25.3113 134.163 25.2091 133.134 25.257C133.014 25.3483 132.794 25.3961 132.613 25.4244C132.719 25.6483 132.789 25.6939 133.044 25.7657C133.295 28.2898 131.523 30.603 130.367 32.1313C129.914 32.7379 129.157 33.1227 128.732 33.7705H128.645V33.8532C129.794 33.6662 132.29 31.2965 132.872 30.4138ZM29.5288 51.8348C29.3522 51.8717 29.3631 51.8545 29.2737 51.9196C28.6458 52.2413 27.5884 55.0198 26.3391 54.2436C25.7025 54.2481 25.6436 54.124 25.3013 53.8958C25.3449 53.0783 26.7381 51.5847 27.2919 51.2304C27.3595 49.9173 27.6996 48.5085 27.5492 47.2758C27.4598 47.2453 27.3747 47.2149 27.2919 47.191C26.9867 47.091 26.7468 47.5562 26.5135 47.791C25.8813 48.4237 25.1008 49.0889 24.6146 49.8542C23.8798 49.8478 21.5317 49.8259 21.076 50.1129H20.8166C21.0324 49.5564 22.6916 47.7301 22.1967 46.9301C22.1683 46.841 22.1422 46.7562 22.1095 46.6692C20.5353 46.6737 18.6385 49.4672 18.1414 50.626C17.8907 51.2043 17.8907 51.8717 17.5397 52.3457V52.4326C18.717 52.2891 19.8987 52.1435 21.076 52C21.523 51.9043 22.1378 52.113 22.4561 51.9152H23.664C23.8646 51.6587 24.0651 51.3978 24.2679 51.1412C24.9874 50.3825 25.9423 49.6151 26.5092 48.7367H26.7686V49.9346C26.108 50.5282 25.0833 51.4456 24.7846 52.3435V53.0305C24.342 54.9437 25.2708 55.9198 26.9431 55.785C28.0332 54.7719 29.8297 53.9414 29.616 51.9174C29.5245 51.8413 29.6096 51.9283 29.5288 51.8348ZM19.5259 50.2868H19.0048C19.2425 49.339 20.1756 48.2541 21.3355 48.2215V48.6498C20.9321 49.1694 20.531 49.6825 20.1276 50.1999C19.8813 50.1954 19.6589 50.1954 19.5259 50.2868ZM205.337 50.7151C204.979 49.8346 204.696 49.1455 204.301 48.3932C203.649 47.1453 202.965 45.3191 201.109 45.2952C200.649 45.6844 200.165 45.9953 199.899 46.5844C198.205 50.4151 201.689 54.7306 203.263 56.8242C203.821 57.5612 204.478 58.3721 205.334 58.7983C205.136 61.7898 202.572 62.7398 199.814 61.5528C197.854 60.7136 196.291 58.8635 195.068 57.2503C194.656 56.709 194.017 56.2568 193.603 55.7002C193.219 55.1806 192.942 54.598 192.482 54.1501V54.0653H192.31C192.547 54.9915 193.082 55.8372 193.43 56.6481C194.889 59.9918 196.742 62.3311 199.557 64.303C200.885 65.2335 203.091 66.7031 204.992 65.3356C208.319 62.9485 206.699 54.0545 205.337 50.7151ZM205.082 54.848C204.855 55.0654 203.909 53.9371 203.699 53.7284C202.736 52.7653 200.802 51.0738 201.89 49.4259H202.319C203.165 50.3021 203.946 51.1391 204.478 52.3478C204.759 52.9979 204.809 54.098 205.164 54.6719C205.112 54.8241 205.149 54.7589 205.082 54.848ZM147.885 72.0491V71.1904C148.275 69.449 148.184 67.3532 148.57 65.5987C149.1 63.2333 148.354 60.9288 150.733 60.3505C150.778 60.1201 150.853 60.0288 150.733 59.8331C150.676 59.6874 150.713 59.7483 150.645 59.6614C150.552 59.594 150.563 59.6092 150.388 59.5766C149.728 60.0592 147.927 60.3875 147.026 60.6071C146.346 60.7723 145.635 60.6288 145.127 60.9506C145.04 60.9788 144.955 61.0093 144.868 61.0375C144.896 61.2093 144.924 61.3832 144.955 61.5528C145.938 61.8724 146.845 61.4854 147.286 62.3268C147.569 62.8746 147.53 64.8421 147.371 65.5965C146.823 68.125 147.057 71.0121 146.505 73.5101C146.318 74.3732 146.557 76.0559 146.163 76.6907V76.8646C145.637 76.6146 145.297 75.9385 144.955 75.4885C144.185 74.4732 143.047 73.6623 142.278 72.6513C141.813 72.0404 141.327 71.3099 140.725 70.8403C140.806 69.1859 141.29 67.4488 141.676 65.94C141.962 64.8052 141.97 63.7551 142.537 62.9268C142.86 62.455 143.638 62.155 144.174 61.8941C144.17 61.6767 144.166 61.5767 144.087 61.4636C144.059 61.3767 144.037 61.2919 144.007 61.2049C142.823 61.381 141.82 61.9463 140.725 62.2376C139.735 62.505 138.739 62.4376 137.961 62.8377C137.985 63.0355 137.983 63.0811 138.048 63.1812C138.079 63.2659 138.105 63.3551 138.135 63.4377C141.166 63.2681 140.706 64.9117 140.121 67.2249C139.94 67.9336 140.06 68.9098 139.69 69.4598V69.6316H139.602C138.983 68.6902 138.048 67.7793 137.276 66.964C136.96 66.677 136.642 66.3901 136.328 66.1053C136.101 65.8074 135.979 65.4269 135.722 65.1574C135.776 64.2073 136.55 63.9638 137.276 63.6964C137.243 63.2986 137.163 63.2485 137.019 63.0072C134.771 63.3355 132.818 64.5943 130.291 64.7269V64.816H130.203C130.212 65.0334 130.212 65.1335 130.291 65.2443V65.4161C130.786 65.5009 131.52 65.2987 132.102 65.503C133.033 65.8292 133.868 66.9118 134.429 67.6554C135.275 68.7706 136.6 69.7185 137.446 70.836C137.893 71.4317 138.392 72.2144 139.001 72.6448C138.918 74.158 138.501 75.7494 138.137 77.119C137.95 77.8212 138.061 78.7169 137.708 79.267C137.653 79.417 137.688 79.3518 137.618 79.4409C136.799 77.8799 135.211 76.6907 134.169 75.3102C132.17 72.6579 129.946 70.2686 127.873 67.6554C127.873 67.2923 127.895 67.0727 128.047 66.8814C128.209 66.3835 128.832 65.9183 129.425 65.8465C129.458 65.5857 129.499 65.553 129.34 65.3291C129.31 65.2465 129.283 65.1617 129.251 65.0726C127.5 65.34 125.937 66.1531 124.251 66.6249C123.377 66.8684 122.23 66.7488 121.576 67.2249C121.489 67.2531 121.402 67.2814 121.317 67.3119C121.365 67.6423 121.45 67.6945 121.576 67.9141C122.265 67.9031 122.983 67.7141 123.645 67.9141C125.374 68.438 126.617 70.386 127.613 71.7013C128.049 72.2796 128.727 72.7513 129.168 73.334C131.015 75.7885 133.105 77.9995 134.945 80.4758C135.661 81.4367 136.624 82.2693 137.27 83.3107C137.66 83.302 137.741 83.2564 137.959 83.139C138.425 81.1193 138.685 79.0822 139.258 77.0299C139.517 76.0907 139.844 74.9819 139.945 73.934C140.66 74.1884 141.235 75.2537 141.672 75.8276C143.023 77.6125 144.927 79.093 146.156 80.9867C146.516 80.9713 146.553 80.9301 146.76 80.8171C147.14 77.8995 147.512 74.9732 147.885 72.0491ZM11.8471 86.7588C11.8187 92.1222 11.5375 100.388 15.7301 101.555C17.2563 101.975 18.1 100.966 18.5775 100.262C20.2912 97.7182 19.8093 92.77 18.1436 90.6308C17.4045 90.7047 16.3449 92.457 15.9895 93.0353C15.8108 93.0005 15.826 93.0114 15.7301 92.9483C15.5317 92.8592 15.5448 92.8048 15.3834 92.6918C15.2526 90.6634 15.6603 88.7741 15.7301 86.8414C18.0063 87.0631 19.9619 88.3545 22.2861 88.4741C22.2839 88.0719 22.2861 87.5306 22.4539 87.274C22.4344 87.074 22.4386 87.0305 22.3667 86.9262C22.0506 86.6762 20.2977 86.2609 19.781 86.2413V86.1544H19.6938C20.0121 83.602 19.2882 81.628 17.5353 80.9062C16.5564 80.7323 15.5797 80.5584 14.6007 80.3866C14.1015 80.2062 13.8573 79.8083 13.4801 79.5279C13.3536 78.7017 13.1901 77.7756 13.8267 77.2908C13.781 76.982 13.757 76.9255 13.5673 76.7733V76.6885H13.4801C13.1901 77.1842 12.9459 77.7604 12.7933 78.4104C12.2831 80.5475 13.467 82.3628 14.7751 82.7976C15.6407 82.939 16.5019 83.0846 17.3653 83.2259C18.0499 83.4912 18.3529 84.0499 18.8282 84.5195C18.8086 85.6326 17.7381 85.7544 16.8442 85.4652C15.4488 85.013 13.9641 84.6978 12.5339 84.1782C12.1589 84.039 11.8078 83.8086 11.3238 83.7455C11.265 84.289 11.2061 84.8347 11.1494 85.3782C12.3573 85.75 13.5673 86.1239 14.773 86.4979C14.7228 89.5372 13.5215 93.1809 15.0324 95.5267C15.2156 95.5724 15.3442 95.6072 15.4641 95.7007C17.1647 95.5833 17.5201 94.2223 18.3965 93.2918C19.1422 95.0745 18.584 98.1899 16.9336 98.6248C16.2228 99.1117 15.1829 98.4813 14.7773 98.1095C13.3645 96.8072 13.0658 94.8245 12.5382 92.6048C12.3573 91.8569 12.6102 90.3394 12.281 89.7633C12.294 88.885 12.4815 87.2979 12.0193 86.8414V86.7566H11.8471V86.7588ZM219.055 101.214C218.743 99.7661 219.172 98.0008 218.88 96.6551V95.2789C218.669 94.294 218.752 92.9831 218.54 92.0135C218.124 90.0959 218.488 87.8262 217.762 86.2479C217.332 86.1457 216.909 86.0652 216.299 86.0739C216.079 86.3 215.913 86.4174 215.952 86.6783C216.133 87.4588 217.145 87.6175 217.42 88.4002C217.448 88.7741 217.476 89.1459 217.507 89.5176C217.792 90.7373 217.749 92.3135 218.021 93.5614V94.5941C218.161 95.2224 218.374 96.8464 218.196 97.3486C217.893 98.2399 216.92 99.0443 216.299 99.6705C214.655 101.312 212.728 103.399 209.826 103.712C209.769 103.86 209.806 103.797 209.739 103.886C209.787 104.96 210.772 104.747 211.467 105.177C211.64 105.147 211.812 105.116 211.982 105.086C212.248 104.925 212.398 104.56 212.584 104.312C213.02 103.745 213.813 103.445 214.221 102.853H214.308C214.313 105.473 214.372 108.421 214.396 110.936H214.653C215.248 108.391 215.2 105.262 215.172 102.16C216.308 101.103 217.029 99.5726 218.189 98.5508V98.3791H218.281C218.294 101.099 218.361 103.877 218.361 106.634C218.361 107.519 218.141 109.63 218.361 109.991V110.506H218.534C218.769 109.582 218.826 108.282 219.053 107.243V105.78C219.305 104.614 219.303 102.377 219.055 101.214H219.055ZM64.2077 106.714C63.4511 106.401 62.5158 105.712 62.0514 105.082C60.6626 103.179 59.1364 98.6726 60.1546 95.2767C60.9809 92.5244 62.7753 90.6525 65.675 89.9416C67.1423 89.5872 68.7208 90.0764 69.6452 90.546C72.2789 91.8982 73.4061 93.8201 74.215 96.9964C75.2615 101.099 73.9272 104.864 71.1953 106.114C71.3654 107.775 71.5398 109.438 71.7121 111.102C72.6801 111.076 73.5696 110.871 74.3872 110.671C75.7586 110.33 77.1583 110.289 78.4425 109.982C79.3821 109.758 80.7361 109.952 81.4599 109.465C81.6321 109.097 80.9214 106.532 80.7731 105.936C80.6488 105.44 80.7536 104.934 80.5137 104.562V104.39C80.3153 104.416 80.1103 104.445 79.9098 104.475C79.949 107.073 78.0914 106.719 76.0267 107.225C74.9955 107.484 73.7397 107.812 72.5798 107.83C72.5798 107.46 72.5798 107.084 72.5775 106.712C72.6757 106.532 74.1887 105.877 74.47 105.68C75.4751 104.986 76.4998 103.886 77.1495 102.847C77.5899 102.136 77.9475 101.186 78.1808 100.349C78.4816 99.2857 78.5165 97.8051 78.2701 96.7355C78.0979 96.0007 78.1655 95.4245 77.9257 94.7571C76.9947 92.1765 75.0434 90.2916 72.5775 89.2524C71.4591 88.7828 70.1945 88.7654 68.8711 88.4784C67.696 88.2263 65.5812 88.748 64.7265 88.9959C60.5732 90.2177 57.7541 92.2135 56.4438 96.2203C55.9293 97.803 56.0884 99.9944 56.531 101.468C57.5492 104.862 60.3966 108.034 64.6415 108.093V108.178C64.7767 108.369 64.7723 108.751 64.8988 108.952C64.8464 109.099 64.8793 109.036 64.8115 109.125C64.454 109.369 63.9307 109.256 63.4315 109.38C62.4067 109.639 59.1015 110.439 58.3428 109.725C57.8588 109.567 57.5361 108.934 57.4794 108.351C57.2636 108.36 57.1611 108.36 57.0499 108.436H56.8711C57.1894 110.099 57.5056 111.767 57.8195 113.428H57.9089V113.515C60.9285 112.995 63.9482 112.478 66.9656 111.965C66.5339 110.386 66.1044 108.81 65.6727 107.232C65.4286 106.856 64.6524 106.901 64.2076 106.714H64.2077ZM211.81 97.1681C211.997 97.6421 212.364 98.4291 212.756 98.7161C212.943 98.853 213.044 98.803 213.19 98.9748C216.044 99.2204 217.204 94.3158 216.039 91.4917C215.837 91.0025 214.917 89.5676 214.053 90.1155H213.879C213.936 89.9655 213.896 90.0329 213.966 89.9416C213.964 89.5329 213.92 89.3981 213.796 89.1676C213.622 89.1394 213.456 89.1111 213.275 89.085C213.19 89.1524 213.255 89.1155 213.105 89.1676C213.164 89.6894 213.347 89.7046 213.364 90.2851C211.978 91.5526 210.789 94.5919 211.81 97.1681ZM212.754 92.6092C212.946 92.1461 213.332 91.8482 213.617 91.4895C213.796 91.4569 213.781 91.4678 213.872 91.4025C214.526 91.4003 214.71 91.5265 215.08 91.7482C215.739 93.294 215.834 95.9963 214.742 97.1703C214.57 97.3551 214.241 97.4225 214.051 97.5986C212.248 97.4616 212.102 94.1745 212.754 92.6092ZM172.736 126.487C171.768 125.892 171.632 122.846 171.27 121.5C170.557 118.859 170.217 116.089 169.459 113.413C168.972 111.7 168.316 109.921 168.51 107.821C168.813 107.521 169.014 107.125 169.374 106.875C169.86 106.538 170.638 106.38 171.011 105.93C171.072 105.819 170.972 105.651 170.924 105.412C169.923 105.569 169.007 106.173 168.161 106.532C166.435 107.264 164.743 107.697 162.988 108.423C162.438 108.651 161.865 109.038 161.172 109.112V109.63C161.23 109.658 161.289 109.686 161.346 109.717C161.438 109.815 163.598 108.865 164.281 109.46C165.057 109.732 164.959 110.743 165.401 111.356C165.268 112.691 163.934 114.743 163.413 115.915C162.148 118.796 160.862 121.55 159.449 124.255C158.908 125.287 158.265 127.155 157.55 127.953V128.038C157.079 127.394 157.112 125.753 156.861 124.859C156.096 122.174 155.603 119.226 154.79 116.602C154.64 116.1 154.123 113.821 154.448 113.334C154.559 112.147 156.242 111.628 157.208 111.269C157.182 111.069 157.151 110.867 157.123 110.667C155.592 110.895 154.007 111.706 152.636 112.215C151.339 112.697 150.15 112.897 148.84 113.334C148.19 113.552 147.454 113.937 146.688 114.021V114.111H146.601C146.629 114.354 146.656 114.482 146.771 114.626C147.122 114.858 149.017 113.861 149.791 114.456C151.003 114.871 151.04 116.796 151.428 118.067C152.479 121.5 153.013 125.3 154.016 128.822C154.267 129.701 154.864 132.486 154.275 133.207C153.948 134.164 152.346 134.547 151.428 134.927C151.459 135.103 151.483 135.275 151.511 135.445C152.837 135.249 154.042 134.634 155.23 134.227C157.548 133.457 159.737 132.814 161.965 131.99C161.928 131.79 161.904 131.586 161.876 131.39C160.923 131.644 160.188 131.931 158.856 131.905C158.68 131.757 158.51 131.616 158.339 131.473C158.193 131.016 158.052 130.555 157.906 130.099C157.999 129.014 159.393 127.009 159.89 126.053C161.357 123.242 162.641 120.402 163.94 117.454C164.435 116.328 165.584 114.68 165.754 113.415C166.151 113.658 166.042 114.367 166.184 114.876C166.478 115.906 166.642 117.011 166.96 118.143C167.571 120.317 167.81 122.655 168.425 124.94C168.654 125.777 168.994 127.218 168.6 128.122C168.212 129.001 166.766 129.581 165.837 129.927C165.874 130.109 165.92 130.322 166.012 130.444C166.02 130.46 167.991 129.818 168.336 129.67C170.745 128.651 173.215 127.585 175.668 126.661C175.635 126.459 175.611 126.259 175.583 126.061C174.972 126.216 173.577 127.007 172.736 126.487ZM213.532 133.727C213.22 134.01 212.756 134.081 212.412 134.329C211.319 135.11 210.177 136.421 209.392 137.51C208.764 138.384 208.228 139.343 207.667 140.267C207.423 140.671 207.369 141.141 207.063 141.467V141.641C207.816 141.514 208.258 141.027 208.79 140.695C210.227 139.808 211.513 138.997 212.841 138.032C213.484 137.562 213.964 136.836 214.651 136.392C214.714 135.368 214.923 134.56 214.483 133.812C214.212 133.755 213.907 133.723 213.532 133.727ZM212.499 136.821C211.978 137.203 211.474 137.74 210.946 138.114C210.493 138.427 209.948 138.597 209.566 138.973H209.479C209.763 138.086 211.263 136.564 211.978 136.051C212.348 135.782 212.813 135.71 213.19 135.445H213.532C213.611 135.545 213.606 135.54 213.707 135.618C213.624 136.269 212.924 136.501 212.499 136.821ZM26.0797 140.175C25.7178 139.086 25.4736 138.023 25.1313 136.992C24.959 136.458 24.9961 135.849 24.6974 135.442V135.186C25.2839 135.397 26.1778 135.375 26.6836 135.703H27.1218C27.0237 135.255 26.9343 134.505 26.6836 134.153C26.422 133.729 24.7519 133.725 24.2723 133.384C23.592 132.851 22.9489 131.323 22.4583 130.542C21.2374 128.614 19.6196 126.559 17.7991 125.209C16.8333 124.494 16.1618 123.75 14.4329 123.746C14.2323 123.889 14.0295 124.033 13.8311 124.176C13.443 125.892 14.1342 129.064 15.1218 129.855V130.027C14.7097 129.916 14.265 129.694 14.0012 129.425H13.914C13.9292 129.918 14.0251 130.564 14.2584 130.886C14.3587 131.309 15.0477 131.655 15.4663 131.746C16.007 134.001 16.757 136.314 17.5375 138.375C18.1676 140.025 18.4881 141.595 19.1727 143.189C19.5106 143.962 20.3108 144.528 20.555 145.339H20.81C20.616 144.613 20.2192 143.932 19.951 143.275C19.1574 141.373 18.5273 139.356 17.8754 137.429C17.4525 136.164 17.1603 134.938 16.7548 133.729C16.6044 133.273 16.648 132.801 16.4103 132.436V132.351C16.9968 132.457 17.3478 132.762 17.7926 132.955C18.7977 133.392 19.7614 133.557 20.8122 133.986C21.5819 134.301 22.5477 134.738 23.4896 134.844C23.5942 135.627 24.0412 137.671 24.438 138.201V138.458C23.1255 137.56 23.1538 136.284 20.8122 136.479C20.6945 136.614 20.5332 136.734 20.3827 136.823C20.1691 137.356 20.156 138.229 20.3827 138.801C20.943 140.208 22.7199 143.13 24.1785 143.534C24.7388 143.934 25.5608 143.441 25.8137 143.012C26.3413 143.291 26.4525 144.495 26.6749 145.082C27.1371 146.293 27.813 147.884 28.9227 148.437V148.524H29.1037C28.9598 147.552 28.4104 146.678 28.0681 145.852C27.305 143.999 26.7076 142.045 26.0797 140.175ZM23.5789 133.21C22.6676 133.147 21.8936 132.788 21.1632 132.523C19.2141 131.801 17.4503 131.186 15.7301 130.368C15.523 129.588 14.0731 126.796 14.8667 125.813C14.9234 125.727 14.9823 125.637 15.039 125.553C15.2156 125.516 15.2068 125.531 15.2984 125.468C17.9561 125.785 20.6225 129.009 21.9394 130.799C22.4539 131.496 22.8769 132.536 23.5789 133.038V133.21ZM24.959 140.691C24.6974 141.01 24.4423 141.323 24.1829 141.638C23.954 141.806 23.6967 141.875 23.4939 142.069C22.0114 142.023 21.959 140.577 21.3377 139.66C21.3485 138.814 21.6691 138.812 22.0244 138.366C22.225 138.353 22.2686 138.353 22.3689 138.286C23.7076 138.295 24.0106 138.893 24.7868 139.403C24.9133 139.914 24.9939 140.134 24.959 140.691ZM75.6866 153.937C75.3269 153.348 74.6183 153.194 74.1321 152.733C73.9817 152.683 74.0449 152.717 73.9599 152.648C75.0718 152.076 76.2557 151.443 77.4112 150.93C77.7208 151.274 79.1576 152.652 79.6547 152.389C79.7419 152.363 79.8269 152.339 79.9119 152.307C79.8836 151.82 79.8574 151.333 79.8247 150.843C78.7368 149.761 77.1343 148.865 75.3356 148.524V148.608H75.2506C75.4533 149.204 76.1183 149.772 76.6372 150.072V150.328C75.6147 150.478 74.7077 150.972 73.7876 151.276C73.1576 151.478 72.3966 151.45 71.8843 151.791H71.6292C72.002 150.748 73.236 149.898 73.8705 149.037C75.1263 147.347 76.1227 145.28 78.1002 144.306C78.0478 143.512 75.7542 141.871 74.9083 142.412C74.6968 142.523 74.8451 142.367 74.736 142.582C74.6074 142.895 75.0347 143.282 74.9083 143.786C74.7426 144.449 73.0965 147.569 72.6648 147.917V148.006C71.7753 147.704 71.0994 146.869 70.2513 146.456C70.4017 145.665 71.0689 145.06 71.4591 144.478C72.4468 142.991 73.2382 141.575 74.736 140.604C74.723 139.46 72.8719 138.266 71.6292 138.286C71.6337 138.814 71.9017 139.11 71.8036 139.575C71.4984 140.975 70.8552 142.391 70.3385 143.619C69.9984 144.413 69.8458 145.356 69.3007 145.937C69.183 146.002 68.228 145.923 68.0056 145.769C67.6808 145.765 67.3559 145.78 67.1466 145.852V146.023C68.5987 147.426 70.1706 147.906 72.1503 148.78C71.8756 150.204 70.4366 151.154 69.7346 152.224C69.3727 152.224 69.0805 152.2 68.8734 152.05C68.675 152.083 68.6597 152.091 68.5289 152.137C68.5638 153.404 69.619 154.481 70.6808 154.718C71.3937 153.922 72.2876 153.537 73.3581 153.085C74.3371 154.102 74.6183 155.557 74.9955 157.211C75.159 157.935 74.893 158.729 75.0827 159.361C75.4141 160.479 76.0115 160.811 76.5478 161.594H77.1518C77.5311 159.572 76.6002 157.611 76.1161 156.005C75.9744 155.32 75.8305 154.626 75.6866 153.937ZM211.978 139.401C211.457 139.843 210.735 140.045 210.168 140.434C209.294 141.047 208.515 141.867 207.669 142.499C207.284 142.791 206.723 143.049 206.459 143.445C206.023 144.097 206.111 145.195 205.596 145.767V146.108C206.285 145.86 206.608 145.058 207.151 144.649C207.816 144.147 208.38 143.482 209.047 143.01C209.468 142.719 209.943 142.558 210.342 142.236C210.615 142.286 210.593 142.317 210.776 142.412C210.735 144.597 209.579 146.139 208.877 147.747C208.675 148.215 208.614 148.945 208.271 149.291C208.112 149.456 207.772 149.495 207.587 149.632C207.011 150.267 206.436 150.896 205.856 151.53C205.311 152.278 205.06 153.276 204.48 154.022C204.473 154.27 204.473 154.491 204.56 154.622C204.648 154.691 204.802 154.75 204.907 154.796C206.019 153.746 207.096 152.87 208.014 151.611C209.446 149.645 210.164 147.161 211.206 144.817C211.86 143.336 212.806 141.878 212.756 139.743C212.656 139.647 212.573 139.525 212.501 139.399H211.978V139.401ZM205.938 152.996V153.08H205.851C206.002 152.048 206.789 151.763 207.151 151.011H207.323C207.212 151.865 206.562 152.633 205.938 152.996ZM76.9795 154.37C76.8051 155.113 78.6365 156.776 79.2186 157.211C79.5086 157.426 79.8988 157.926 80.3414 157.724C80.5682 157.707 80.6379 157.683 80.7753 157.637C80.8756 157.407 81.026 157.116 80.8603 156.868C80.8146 155.785 78.002 154.576 76.9795 154.37ZM85.2622 160.988C85.4083 161.061 85.5282 161.033 85.6939 160.903C85.997 160.655 85.8313 160.224 86.0406 159.87C86.5246 159.524 87.3814 159.613 88.0268 159.437C89.7906 158.974 91.8487 159.007 93.8044 158.576C94.731 158.374 96.2637 158.924 96.9963 158.494C97.0835 158.461 97.1729 158.435 97.2535 158.403C97.2121 157.279 95.0537 156.796 93.8851 157.122C93.3684 157.268 92.7666 157.587 92.2477 157.722C91.8444 157.75 91.441 157.781 91.0377 157.805C90.9025 156.407 90.2092 155.318 90.1765 153.854C91.4737 153.826 93.1002 153.657 93.9679 153.167C93.9505 152.728 93.8698 152.728 93.7107 152.48C92.723 152.243 91.029 152.206 90.2593 152.733C90.0413 152.724 89.9388 152.724 89.8298 152.648C89.348 152.039 89.5769 150.8 89.1409 150.156V149.813C90.0697 149.613 91.5871 149.448 92.0733 148.78C92.1409 148.691 92.1038 148.758 92.1583 148.611C92.0798 148.532 92.0471 148.461 91.9861 148.35C90.6365 148.011 90.0522 148.243 88.8836 148.695C88.5195 147.53 88.9577 146.608 87.763 146.284C88.0181 145.843 88.8662 145.863 89.4003 145.684C90.2332 145.41 91.1816 145.041 91.9032 144.654C91.9599 144.506 91.9186 144.567 91.9905 144.48C91.9425 144.045 91.8204 144.06 91.6438 143.793C90.3989 143.697 89.4047 143.817 88.7092 144.48H88.5435C88.646 143.839 89.0471 142.921 89.4025 142.417C89.6467 142.065 90.0958 142.112 90.2659 141.643H90.3531V141.556C90.1765 141.33 90.0064 141.099 89.8342 140.873C89.4287 140.591 88.8444 140.562 88.4563 140.267C87.8829 140.258 87.3335 140.26 86.9912 140.438C87.0369 140.769 87.1852 140.978 87.2506 141.212C87.4883 142.101 86.6314 144.841 86.3 145.256C86.0319 145.593 82.9185 146.715 82.0725 146.46C81.872 146.397 81.2877 146.104 81.1241 145.941C81.0544 145.856 81.0915 145.924 81.0369 145.773C82.26 144.626 83.1409 142.073 84.8327 141.558C84.8633 141.414 84.8916 141.271 84.9221 141.128C84.4992 140.693 82.4475 138.545 81.3858 139.234C81.2986 139.264 81.2135 139.286 81.1307 139.317C81.1307 140.051 81.497 140.606 81.3007 141.384C80.9039 142.93 80.0209 144.763 79.2295 146.03C78.7542 146.789 77.7186 147.617 77.6772 148.7C79.0856 148.558 79.4257 147.108 80.5202 146.715C80.8385 147.008 81.1525 147.295 81.4708 147.58C81.9221 148.254 81.8371 149.272 82.0725 150.156C82.4759 152.02 82.8814 153.885 83.2804 155.748C83.3349 156.668 83.3938 157.581 83.4548 158.503C83.6837 159.342 84.3705 160.787 85.2622 160.988ZM88.0159 154.454C88.0835 155.255 88.5784 157.513 88.9665 158.068C88.9687 158.122 88.9687 158.185 88.9687 158.242C87.9287 158.463 86.8473 158.763 85.6896 158.759C85.5108 157.531 84.9222 156.455 84.9156 155.146C86.239 155.12 86.9215 154.587 88.0159 154.454H88.0159ZM83.0144 147.319C83.1518 147.087 85.441 146.724 85.6917 146.887C86.6074 147.311 86.2804 148.652 86.8124 149.467C86.6314 149.891 84.5297 150.53 83.88 150.585C83.7644 149.676 83.6118 147.811 83.0144 147.319ZM86.9846 150.587H87.0718C87.2375 151.369 87.3313 152.713 87.763 153.341C87.4534 154.094 85.5478 154.031 84.8284 154.459C84.5275 154.278 84.1307 152.12 84.1394 151.535C84.7978 151.476 86.5071 150.911 86.9846 150.587ZM72.0587 155.485C71.9279 155.778 71.9432 156.252 71.8036 156.602C71.058 158.424 70.8138 158.805 71.9759 160.559C72.4926 160.559 72.5624 160.479 72.8392 160.3C73.1815 158.872 73.236 156.157 72.0587 155.485ZM170.409 156.002C167.891 155.383 165.774 156.622 163.158 156.435C162.909 156.172 162.722 156.022 162.558 155.661C160.738 155.713 158.728 159.759 160.574 160.994C161.562 161.661 164.377 161.274 165.578 160.994C166.243 160.837 167.285 160.692 167.819 161.077C168.543 161.614 168.414 163.646 168.161 164.779C167.874 166.899 167.584 169.021 167.298 171.147C167.043 172.434 166.784 173.723 166.522 175.014C167.845 175.008 169.09 173.66 169.463 172.69C169.679 172.13 169.563 171.599 169.722 170.971C170.178 169.166 170.239 167.014 170.671 165.123C170.948 163.896 170.76 162.733 171.011 161.596C171.199 160.746 171.323 157.909 171.103 157.124C170.97 156.687 170.632 156.344 170.409 156.002ZM52.3123 181.985C52.018 181.763 51.813 181.369 51.5361 181.126C50.5049 180.213 49.2927 179.332 48.172 178.543C47.2433 177.895 45.9743 177.508 45.148 176.741C45.1262 176.554 45.4162 176.097 45.2374 175.621C44.5071 173.675 41.773 171.421 40.0615 170.377C39.2701 169.886 37.9424 169.662 37.2163 169.168C36.68 169.136 36.4009 169.114 36.2679 169.51C36.0565 169.982 36.7236 170.642 36.9547 170.973C37.5456 171.803 38.2214 172.773 39.0259 173.375C39.6277 173.83 40.3145 174.227 40.8355 174.756H41.095C40.7592 173.83 39.7672 173.327 39.0259 172.78C38.3479 172.277 38.047 171.406 37.4736 170.799C37.5194 170.527 37.5499 170.551 37.648 170.369C40.031 170.386 41.5768 172.567 42.6495 173.98C43.1291 174.612 43.8944 174.982 43.9445 176.047C43.6916 176.047 43.4736 176.049 43.3428 175.96H43.0834C43.4932 177.097 44.8799 177.002 45.8457 177.597C47.7818 178.791 49.3406 180.665 51.0194 182.152C51.5906 182.661 52.587 183.163 52.744 184.048C51.5732 183.987 50.7447 183.337 49.9947 182.841C48.656 181.971 46.5129 180.454 45.5928 179.228C45.4184 179.002 45.3617 178.66 45.1589 178.456C44.9213 178.215 44.5899 178.143 44.385 177.856H44.0405C43.9555 178.75 44.9278 179.391 45.5034 179.919C47.289 181.55 49.2011 183.054 51.4555 184.222C52.2687 184.641 53.7513 185.356 54.6495 184.824C54.5296 183.591 53.119 182.593 52.3123 181.985ZM105.443 187.661C101.052 184.665 94.574 181.628 87.0696 181.815C86.7056 182.041 85.973 181.861 85.5195 181.985C84.8916 182.15 84.5079 182.469 84.0544 182.756C84.037 184.869 87.207 186.011 88.9708 186.452C90.0239 186.72 90.9527 186.228 91.5609 186.02C92.0297 184.235 89.8691 183.974 88.8858 183.093H88.7092V183.011C95.3284 182.75 100.282 184.593 104.065 187.4C105.009 188.1 106.092 189.102 106.568 190.237C106.744 190.661 106.82 191.355 106.568 191.703C106.221 192.659 105.074 192.574 103.977 192.822C101.444 193.398 97.9708 191.972 96.8153 190.842C96.5798 191.255 96.9221 191.887 96.5581 192.305C96.1743 193.344 94.84 193.074 93.6235 193.335C91.6242 193.768 88.4933 192.746 87.3269 191.961C87.0021 191.739 86.7666 191.339 86.4635 191.1C86.4482 190.879 86.4243 190.807 86.3742 190.67C86.5508 190.507 86.7601 190.263 86.8909 190.068C89.3742 189.883 90.6365 190.007 92.0711 191.359C92.0341 191.533 92.0493 191.522 91.9817 191.611C91.8204 191.942 91.4476 191.981 90.9483 191.961V192.124C91.8575 192.133 92.2412 191.996 92.7579 191.696C92.7862 191.524 92.8168 191.35 92.8451 191.181C92.5486 190.876 92.3415 190.468 91.9817 190.231C90.5646 189.307 87.6409 188.837 86.0319 189.892C85.779 191.109 86.5377 191.77 87.2397 192.296C88.6481 193.357 89.8364 193.974 91.8139 194.533C92.4483 194.709 93.013 194.548 93.7128 194.701C94.3233 194.84 95.3807 194.872 96.0413 194.701C97.1402 194.422 98.6685 193.266 97.4192 191.944V191.863C98.0711 192.103 98.6053 192.74 99.231 193.072C100.89 193.935 103.637 194.648 106.136 194.103C107.361 193.833 108.628 193.833 108.977 192.724C109.367 192.12 108.828 191.272 108.637 190.926C107.832 189.498 106.772 188.563 105.443 187.661ZM89.4832 183.702C89.7884 183.906 89.9628 184.335 90.2593 184.563C90.2527 184.78 90.2506 184.885 90.1721 184.996C89.6118 186.511 86.4527 185.389 85.6852 184.819C85.4454 184.646 85.3516 184.28 85.1707 184.05C85.2034 183.872 85.1925 183.88 85.2601 183.793C85.4955 183.132 86.1692 183.352 86.723 183.019C87.8175 183.024 88.8073 183.243 89.4832 183.702ZM169.539 184.561H168.676C168.103 185.017 167.165 185.076 166.513 185.42C165.942 185.726 165.246 186.141 164.706 186.539C164.254 186.863 163.995 187.448 163.583 187.824C163.592 188.254 163.6 188.32 163.93 188.428C164.017 188.496 163.951 188.463 164.097 188.515C164.189 188.413 164.272 188.376 164.359 188.254C164.431 188.202 164.298 188.028 164.272 187.746C165.107 186.911 165.726 186.45 166.947 185.937C167.259 185.813 167.922 185.43 168.327 185.68H168.502C168.443 186.528 166.504 189.137 165.914 189.55V189.805C167.501 189.398 168.56 186.233 169.624 185.078C169.598 184.883 169.603 184.833 169.537 184.737V184.561H169.539ZM162.637 190.926C162.127 191.383 160.877 191.426 160.31 191.872H160.223C160.448 191.546 160.855 191.409 161.087 191.1C161.252 190.874 161.322 190.611 161.516 190.413C161.479 190.237 161.494 190.25 161.431 190.159V189.985C158.913 189.524 154.707 191.689 153.408 192.824C153.07 193.118 152.869 193.557 152.544 193.861C152.551 194.103 152.579 194.227 152.629 194.374C154.158 194.477 157.023 193.542 157.369 192.311C157.437 192.257 157.393 192.307 157.369 192.224V192.053C156.325 191.992 154.919 192.216 154.269 192.824H154.184C154.751 191.963 156.848 191.202 157.975 190.848C158.35 190.731 159.174 190.522 159.532 190.761C159.613 190.794 159.7 190.818 159.787 190.848C159.584 191.707 158.355 192.668 157.544 192.911V193.085C158.869 192.781 160.079 192.181 161.25 191.709C162.055 191.381 162.964 191.3 163.668 190.848C164.167 190.522 165.866 188.222 165.999 187.578C164.004 187.885 163.842 189.85 162.637 190.926ZM155.821 192.648V192.907C155.658 193.013 155.54 193.248 155.387 193.335C154.94 193.596 154.345 193.568 153.92 193.853C153.724 193.831 153.68 193.835 153.58 193.764H153.495C153.728 193.029 155.15 192.694 155.821 192.648ZM119.852 200.729C119.882 200.649 119.906 200.56 119.937 200.475C117.809 200.388 115.679 200.303 113.555 200.216C113.287 200.394 112.875 200.292 112.52 200.388C112.079 200.514 111.591 200.716 111.227 200.907C111.283 201.053 111.244 200.99 111.314 201.077C111.833 201.486 114.855 201.51 115.456 201.077H115.626V200.907C114.713 200.618 113.047 201.344 112.35 200.907H112.26V200.818C114.554 200.66 117.122 200.725 119.509 200.731C119.276 200.89 118.794 200.842 118.559 200.99C118.474 201.021 118.389 201.049 118.304 201.077V201.249C118.823 201.331 119.337 201.421 119.854 201.503C119.935 201.594 119.845 201.514 119.939 201.588C119.176 202.095 117.205 201.886 116.492 201.503V201.331C116.104 201.153 114.331 201.514 113.989 201.588C113.699 201.653 113.4 201.557 113.211 201.673C112.851 201.692 112.816 201.736 112.609 201.844C112.657 202.123 112.685 202.095 112.783 202.275C113.339 202.405 114.301 202.418 114.935 202.618V202.534H115.022V202.447C114.7 202.323 113.804 202.39 113.468 202.195H113.296C113.584 201.968 116.403 201.59 116.921 201.936C117.07 201.988 117.007 201.951 117.094 202.021C116.634 202.103 116.171 202.195 115.711 202.275C115.766 202.423 115.731 202.36 115.799 202.447C115.94 202.542 116.219 202.542 116.488 202.534C116.4 202.695 116.37 202.768 116.228 202.875C116.256 202.927 116.287 202.988 116.315 203.047C117.536 203.045 118.563 202.923 119.59 202.705C120.201 202.573 120.951 202.816 121.402 202.534H122.093V202.36C120.918 202.357 117.983 202.245 117.264 202.705H117.009C117.081 202.614 117 202.697 117.092 202.618C117.432 202.227 118.118 202.423 118.727 202.275C119.686 202.047 121.273 201.658 122.093 202.275C122.324 202.418 122.18 202.26 122.178 202.534C122.411 202.527 122.573 202.527 122.695 202.451H123.301V202.275C122.514 202.086 121.363 201.729 120.713 201.334C120.336 201.101 120.506 200.788 119.852 200.729ZM32.2062 42.1146C32.0143 42.8103 31.6088 43.4038 31.345 44.006C30.7607 45.3387 30.2396 46.6692 29.7076 47.9671C29.2563 49.0455 28.9772 50.7825 28.3275 51.6608V51.8326C29.2345 51.6717 29.8493 50.7608 30.3966 50.1999C31.7418 48.8215 34.5826 45.3735 34.539 42.8037C34.4038 42.6711 34.2796 42.4515 34.1923 42.2885C33.656 42.1602 32.9627 42.1015 32.2062 42.1146ZM32.5528 45.73C32.1582 46.3779 31.9402 47.0171 31.515 47.6236C31.1269 48.178 30.5121 48.6063 30.1349 49.1737H30.0455C30.1567 48.5172 30.5121 47.9867 30.741 47.4519C31.2534 46.2322 31.6044 45.0213 32.204 43.9277C32.5354 43.9344 32.7883 43.9603 32.9801 44.0973C33.1873 44.2104 33.0412 44.0582 33.1524 44.2712C33.329 44.6995 32.7621 45.3822 32.5528 45.73ZM185.671 19.3218C184.768 18.4174 184.082 17.2825 183.168 16.3955V16.3107C182.721 16.4694 181.206 17.8065 180.927 18.2043C180.382 17.9978 180.074 17.4108 179.632 17.0869C178.158 15.9824 176.771 14.5497 174.201 14.5932C173.876 14.8432 173.401 14.8498 172.991 15.0215C171.833 15.5215 170.629 16.5173 170.145 17.6891C169.603 18.9979 170.154 20.9306 170.573 21.9046C171.427 23.8699 172.823 25.5287 174.024 27.1527C175.02 28.4898 176.143 29.8746 177.992 30.3355C180.076 30.853 181.092 28.4137 181.875 27.4919C182.682 26.5462 184.452 26.3201 185.067 25.0852C185.294 24.6352 185.141 23.7482 184.982 23.3655C184.59 22.4394 182.656 19.8392 181.875 19.324C181.932 18.8044 182.169 18.787 182.39 18.463C182.93 18.7261 183.129 19.487 183.512 19.9262C184.005 20.4871 184.703 20.7871 185.237 21.3002C186.061 21.3068 186.556 21.0958 186.959 20.698H187.049C186.84 20.1218 186.081 19.724 185.671 19.3218ZM180.754 28.6115C179.23 28.9702 178.474 27.9745 177.65 27.1484C175.609 25.1156 174.227 22.5981 172.644 20.0957C172.101 19.2348 170.714 17.6304 171.436 16.3955H171.778C172.214 17.0456 172.954 17.4978 173.42 18.1174C174.709 19.8218 176.285 21.311 177.56 23.0199C178.345 24.0743 179.215 25.0635 179.974 26.1157C180.362 26.657 180.663 27.344 181.186 27.7484C181.092 28.1398 180.925 28.3224 180.754 28.6115ZM182.045 22.5046C182.743 23.459 183.691 24.0004 183.683 25.6852C183.417 25.9374 183.34 26.1722 182.906 26.2853C182.819 26.3549 182.882 26.3179 182.734 26.3744C181.515 24.3482 179.756 22.6546 178.339 20.7806C177.877 20.1675 177.159 19.6696 176.699 19.0609C175.91 18.0174 174.97 17.1825 174.109 16.2238C173.861 15.939 173.743 15.665 173.425 15.4476C173.499 15.2607 173.494 15.3237 173.595 15.1911C175.055 15.2041 175.76 16.1868 176.612 16.8281C178.722 18.4043 180.493 20.3632 182.045 22.5046Z" fill="black"/>
</svg>
