<svg width="35" height="35" viewBox="0 0 35 35" fill="none" xmlns="http://www.w3.org/2000/svg">
<path d="M19.4331 17.5008L34.5991 2.33474C35.133 1.80079 35.133 0.935084 34.5991 0.401198C34.0651 -0.132688 33.1994 -0.132756 32.6655 0.401198L17.4995 15.5672L2.33352 0.401198C1.79956 -0.132756 0.933863 -0.132756 0.399977 0.401198C-0.133908 0.935152 -0.133977 1.80085 0.399977 2.33474L15.566 17.5007L0.399977 32.6668C-0.133977 33.2007 -0.133977 34.0664 0.399977 34.6003C0.66692 34.8673 1.01685 35.0007 1.36678 35.0007C1.71671 35.0007 2.06658 34.8673 2.33359 34.6003L17.4995 19.4343L32.6655 34.6003C32.9324 34.8673 33.2823 35.0007 33.6323 35.0007C33.9822 35.0007 34.3321 34.8673 34.5991 34.6003C35.133 34.0664 35.133 33.2007 34.5991 32.6668L19.4331 17.5008Z" fill="#B30000"/>
</svg>
